<?xml version="1.0" encoding="UTF-8"?>
<svg width="1440px" height="633px" viewBox="0 0 1440 633" version="1.1" xmlns="http://www.w3.org/2000/svg" xmlns:xlink="http://www.w3.org/1999/xlink">
    <!-- Generator: Sketch 43.1 (39012) - http://www.bohemiancoding.com/sketch -->
    <title>909c987e9e8c30d8509752464753e7f6</title>
    <desc>Created with Sketch.</desc>
    <defs>
        <linearGradient x1="40.1757003%" y1="-9.72826087%" x2="64.8155204%" y2="80.6827446%" id="linearGradient-1">
            <stop stop-color="#ABBEEF" offset="0%"></stop>
            <stop stop-color="#7289DA" offset="100%"></stop>
        </linearGradient>
        <path d="M1,0 L1441,1.92114098e-13 L1441,660 L0,660 L0.978007105,437.60362 C0.990153446,434.841572 1,430.365311 1,427.594557 L1,0 Z" id="path-2"></path>
        <path d="M1,0 L1441,1.92114098e-13 L1441,660 L0,660 L0.978007105,437.60362 C0.990153446,434.841572 1,430.365311 1,427.594557 L1,0 Z" id="path-4"></path>
    </defs>
    <g id="Page-1" stroke="none" stroke-width="1" fill="none" fill-rule="evenodd">
        <g id="iPad-Pro-Portrait-Copy" transform="translate(0.000000, -27.000000)">
            <g id="909c987e9e8c30d8509752464753e7f6">
                <g id="Mask"></g>
                <g id="Path-2-Clipped">
                    <mask id="mask-3" fill="white">
                        <use xlink:href="#path-2"></use>
                    </mask>
                    <g id="path-2"></g>
                    <path d="M702.483184,312.672301 C1017.5,131.5 1589,-183 1819,232.5 C1922.16554,418.870797 1788.40438,811.686637 1788.40438,811.686637 C1788.40438,811.686637 25.4213606,947.970556 -61.4765625,944.585938 C-148.374486,941.201319 -60.9453125,373.094293 -60.9453125,373.094293 C229.548513,66.1737275 467.317822,447.920477 702.483184,312.672301 Z" id="Path-2" fill="#F8FBFF" fill-rule="nonzero" opacity="0.979127799" mask="url(#mask-3)"></path>
                </g>
                <g id="Path-2-Copy-Clipped">
                    <mask id="mask-5" fill="white">
                        <use xlink:href="#path-4"></use>
                    </mask>
                    <g id="path-2"></g>
                    <path d="M-374.498077,712.209398 C-79.451487,443.009287 93.8026409,751.50072 393.483184,659.213252 C755.358568,547.772708 1007.73136,182.016876 1386.2604,112.495019 C1668.56119,60.6467527 1814.9899,56.4228251 1850.70312,334.596571 L1479.40438,1096.89886 C1479.40438,1096.89886 -299.102077,1112.48314 -386,1109.51449 L-380.056171,1249.78916" id="Path-2-Copy" fill="#F1F7FF" fill-rule="nonzero" opacity="0.979127799" mask="url(#mask-5)"></path>
                </g>
            </g>
        </g>
    </g>
</svg>