<?xml version="1.0" encoding="UTF-8"?>
<svg width="573px" height="316px" viewBox="0 0 573 316" version="1.1" xmlns="http://www.w3.org/2000/svg" xmlns:xlink="http://www.w3.org/1999/xlink">
    <!-- Generator: Sketch 43.1 (39012) - http://www.bohemiancoding.com/sketch -->
    <title>Group</title>
    <desc>Created with Sketch.</desc>
    <defs></defs>
    <g id="Page-1" stroke="none" stroke-width="1" fill="none" fill-rule="evenodd" opacity="0.256170743">
        <g id="iPad-Pro-Portrait" transform="translate(-383.000000, -2055.000000)">
            <g id="Group" transform="translate(383.000000, 2055.000000)">
                <path d="M0,315.204513 C0,315.204513 7.43906007,273.204513 29.291299,271.204513 C51.143538,269.204513 47.4240079,273.704513 56.2578918,273.704513 C65.0917756,273.704513 77.1802482,258.204513 78.1101307,236.704513 C79.0400132,215.204513 81.8296608,195.704513 94.8480159,185.704513 C107.866371,175.704513 123.209432,183.704513 133.43814,189.204513 C143.666848,194.704513 155.75532,184.704513 159.009909,166.704513 C162.264498,148.704513 159.47485,105.204513 158.544968,99.7045128 C157.615085,94.2045128 161.334615,77.2045128 171.563323,74.2045128 C181.79203,71.2045128 202.249446,76.7045128 212.943095,85.2045128 C223.636743,93.7045128 245.488982,104.704513 257.577455,102.704513 C269.665928,100.704513 284.079106,83.7045128 284.544048,63.2045128 C285.008989,42.7045128 286.403813,11.4802041 311.045699,1.48020405 C335.687586,-8.51979595 372.417945,35.2045128 377.067357,41.2045128 C381.71677,47.2045128 421.236776,110.204513 428.675837,130.704513 C436.114897,151.204513 443.173486,159.194007 458.897018,163.204513 C474.62055,167.215019 487.258435,153.204513 501.206672,149.204513 C515.15491,145.204513 531.892795,161.704513 530.962913,181.204513 C530.03303,200.704513 523.058911,232.704513 506.785967,250.204513 C490.513023,267.704513 482.609022,286.204513 484.003846,300.704513 C485.39867,315.204513 484.003846,315.204513 484.003846,315.204513 L0,315.204513 Z" id="Path-22" fill="#D2E2FD"></path>
                <path d="M79,315.204513 C79,315.204513 87,273.204513 110.5,271.204513 C134,269.204513 130,273.704513 139.5,273.704513 C149,273.704513 162,258.204513 163,236.704513 C164,215.204513 167,195.704513 181,185.704513 C195,175.704513 211.5,183.704513 222.5,189.204513 C233.5,194.704513 246.5,184.704513 250,166.704513 C253.5,148.704513 250.5,105.204513 249.5,99.7045128 C248.5,94.2045128 252.5,77.2045128 263.5,74.2045128 C274.5,71.2045128 296.5,76.7045128 308,85.2045128 C319.5,93.7045128 343,104.704513 356,102.704513 C369,100.704513 384.5,83.7045128 385,63.2045128 C385.5,42.7045128 387,11.4802041 413.5,1.48020405 C440,-8.51979595 479.5,35.2045128 484.5,41.2045128 C489.5,47.2045128 532,110.204513 540,130.704513 C548,151.204513 572.5,144.909026 572.5,163.204513 C572.5,181.5 572.5,315.204513 572.5,315.204513 L79,315.204513 Z" id="Path-22" fill="#CCDEFC"></path>
            </g>
        </g>
    </g>
</svg>