<?xml version="1.0" encoding="utf-8"?>
<!-- Generator: Adobe Illustrator 16.0.0, SVG Export Plug-In . SVG Version: 6.00 Build 0)  -->
<!DOCTYPE svg PUBLIC "-//W3C//DTD SVG 1.1//EN" "http://www.w3.org/Graphics/SVG/1.1/DTD/svg11.dtd">
<svg version="1.1" id="Layer_1" xmlns="http://www.w3.org/2000/svg" xmlns:xlink="http://www.w3.org/1999/xlink" x="0px" y="0px"
	 width="90.035px" height="75.703px" viewBox="0 0 90.035 75.703" enable-background="new 0 0 90.035 75.703" xml:space="preserve">
<path fill="none" stroke="#2C9EE5" stroke-width="7" stroke-miterlimit="10" d="M85.478,39.719
	c-1.307,2.615-3.102,4.866-5.184,6.898c-2.913,2.843-6.263,5.054-9.911,6.83c-3.87,1.885-7.917,3.25-12.127,4.147
	c-4.585,0.978-9.224,1.378-13.903,1.216c-1.986-0.068-3.968-0.297-5.951-0.463c-0.788-0.066-1.574-0.163-2.361-0.232
	c-0.09-0.008-0.205,0.051-0.279,0.113c-1.154,0.996-2.285,2.019-3.457,2.994c-3.154,2.627-6.582,4.842-10.268,6.65
	c-1.016,0.498-2.056,0.944-3.085,1.414c-0.052,0.023-0.105,0.039-0.163,0.061c0.525-1.068,1.063-2.111,1.557-3.174
	c1.038-2.232,1.765-4.576,2.404-6.947c0.389-1.438,0.803-2.867,1.211-4.322c-0.593-0.342-1.186-0.676-1.771-1.021
	c-1.791-1.059-3.615-2.066-5.361-3.195c-3.506-2.264-6.525-5.056-8.852-8.551c-1.73-2.601-2.914-5.42-3.314-8.535
	C4.12,29.379,4.95,25.42,7.036,21.719c1.598-2.836,3.729-5.228,6.178-7.346c3.418-2.955,7.303-5.133,11.468-6.836
	c2.778-1.135,5.634-2.027,8.563-2.677c2.115-0.469,4.25-0.813,6.405-1.035c2.881-0.298,5.769-0.388,8.661-0.283
	c2.574,0.093,5.133,0.345,7.675,0.774c5.522,0.936,10.784,2.651,15.742,5.266c4.093,2.156,7.733,4.896,10.714,8.465
	c2.232,2.67,3.9,5.641,4.642,9.068C88.032,31.498,87.481,35.705,85.478,39.719z"/>
</svg>
