<?xml version="1.0" encoding="UTF-8"?>
<svg width="2200px" height="85px" viewBox="0 0 2200 85" version="1.1" xmlns="http://www.w3.org/2000/svg" xmlns:xlink="http://www.w3.org/1999/xlink">
    <!-- Generator: Sketch 43.1 (39012) - http://www.bohemiancoding.com/sketch -->
    <title>MontañasHielo</title>
    <desc>Created with Sketch.</desc>
    <defs></defs>
    <g id="Page-1" stroke="none" stroke-width="1" fill="none" fill-rule="evenodd">
        <g id="Desktop-HD-Copy-2" transform="translate(0.000000, -917.000000)">
            <g id="MontañasHielo" transform="translate(0.000000, 917.000000)">
                <path d="M850.759091,23.1775701 L883.285227,38.8785047 L990.210227,0 L1086.66705,45.6074766 L1168.16932,21.682243 L1200.32159,30.6542056 L1183.87159,48.5981308 L1209.29432,17.5700935 L1223.50114,22.4299065 L1277.71136,14.2056075 L1312.48068,43.7383178 L1385.38409,21.682243 L1436.60341,40 L1469.87727,17.5700935 L1546.51932,37.3831776 L1559.23068,32.5233645 L1659.60561,62.0428857 L1672.51136,30.6542056 L1737.9375,51.2149533 L1829.90795,40 L1871.5,70.2803738 C1871.5,70.2803738 1975.85348,43.6379846 1980.5,43.7383178 C1982.38958,43.7791198 2061,65.5 2061,65.5 L2098,48 L2200,82.5 L2200,85 L5.39956968e-13,85 L0,79.2523364 L79.5,37.3831776 L143,62.0428857 L204,37.3831776 L236,57.5700935 L278,32.5233645 L352.025,62.0428857 L349.407955,70.2803738 L382.307955,34.3925234 L434.275,48.5981308 L490.354545,23.1775701 L564.379545,57.5700935 L628.310227,34.3925234 L651.863636,55.3271028 L716.168182,0 L789.445455,23.1775701 L818.606818,26.5420561 L850.759091,23.1775701 Z" id="Path-4" fill="#76A3F6"></path>
                <polygon id="Path-2" fill="#D6E5FF" points="0 85 78.5 37.0093458 115 59 147.5 38.1308411 184.5 53.3003028 207.5 37.0093458 351.831611 61.3343334 386.794318 37.0093458 433.527273 54.2056075 487.7375 27.6635514 564.072628 56.6050358 624.945455 39.6261682 652.2375 55.3271028 730.001136 0.373831776 775.238636 23.1775701 788.323864 16.4485981 823.840909 32.8971963 850.759091 22.8037383 871.695455 54.2056075 949.085227 0.373831776 992.827273 22.0560748 1007.40795 16.4485981 1051.89773 37.0093458 1084.79773 44.1121495 1168.91705 21.682243 1189.10568 32.8971963 1209.29432 17.1962617 1222.37955 23.5514019 1283.31932 17.1962617 1335.66023 50.0934579 1397.34773 38.1308411 1424.63977 17.1962617 1438.47273 25.4205607 1469.87727 17.1962617 1497.16932 27.6635514 1528.57386 38.1308411 1559.97841 32.8971963 1616.43182 54.2056075 1672.88523 30.6542056 1736.09876 55.5678125 1749.59906 53.3003028 1828.78636 40 1939.5 61.3343334 2040 44.1121495 2089 61.3343334 2098.5 47.5 2200 85"></polygon>
            </g>
        </g>
    </g>
</svg>