<svg width="395px" viewBox="0 0 395 380" version="1.1" xmlns="http://www.w3.org/2000/svg"
     xmlns:xlink="http://www.w3.org/1999/xlink">
    <!-- Generator: Sketch 43.1 (39012) - http://www.bohemiancoding.com/sketch -->
    <desc>Created with Sketch.</desc>
    <defs>
        <ellipse id="path-11" cx="42.1086059" cy="42.1538398" rx="42.1086059" ry="42.1538398"></ellipse>
        <ellipse id="path-22" cx="42.1086059" cy="42.1538398" rx="42.1086059" ry="42.1538398"></ellipse>
        <ellipse id="path-33" cx="42.1086059" cy="42.1538398" rx="42.1086059" ry="42.1538398"></ellipse>
        <ellipse id="path-44" cx="42.1086059" cy="42.1538398" rx="42.1086059" ry="42.1538398"></ellipse>
    </defs>
    <g id="Page-1" stroke="none" stroke-width="1" fill="none" fill-rule="evenodd">
        <g id="Desktop" transform="translate(-315.000000, -237.000000)">
            <g id="do" transform="translate(315.000000, 237.000000)">
                <ellipse id="Oval-center" stroke="#4285F4" stroke-width="4.7761194" cx="196.402985"
                         cy="203.449219" rx="165.373134" ry="165.550781"></ellipse>
                <g id="center" transform="translate(121.000000, 135.000000)">
                    <polygon id="Polygon-center" fill="#538BF4"
                             transform="translate(74.887640, 68.310998) scale(1, -1) translate(-74.887640, -68.310998) "
                             points="74.8876404 6.5 139.775281 53.7194011 114.990408 130.121997 34.7848732 130.121997 10 53.7194011"></polygon>
                    <path d="M67.5864913,72.9608879 L74.5160146,50.1546598 C74.7813709,49.2813924 75.2142349,49.2818356 75.4779586,50.155657 L78.8120012,61.2034141 C79.0757249,62.0772355 79.5072828,63.5070847 79.7710065,64.3810169 L82.4136859,73.1378462 C82.6774096,74.0117784 82.3161636,74.2635311 81.6111951,73.6975307 L76.2804493,69.4185096 C75.575372,68.8525092 74.4153359,68.8443095 73.7026397,69.4003373 L68.3998662,73.5377474 C67.68717,74.0937753 67.3211349,73.8342661 67.5864913,72.9608879 Z"
                          id="Shape-center" fill="#FFFFFF"></path>
                    <path d="M99.0168539,53.0833333 L28.6516854,0 L115.870787,0 L99.0168539,53.0833333 Z M94.3850096,79.6279699 L120.081574,2.10172651 L147.468923,78.3658661 L94.3850096,79.6279699 Z M72.2352776,35.5031782 L0.00599465271,86.0207781 L26.9581791,3.07048366 L72.2352776,35.5031782 Z M47.3668618,55.4034356 L72.8949838,133.975238 L5.0579787,85.9414288 L47.3668618,55.4034356 Z M60.2548155,82.9974215 L149.997994,82.9920962 L77.1050442,132.711608 L60.2548155,82.9974215 Z"
                          id="Combined-Shape-center" fill="#82AEFF"></path>
                </g>
                <g id="web" transform="translate(154.000000, 0.000000)">
                    <g id="webcirc">
                        <use fill="#D9E7FD" fill-rule="evenodd" xlink:href="#path-11"></use>
                        <ellipse stroke="#4285F4" stroke-width="4.83582109" cx="42.1086059" cy="42.1538398"
                                 rx="39.6906954" ry="39.7359292"></ellipse>
                    </g>
                    <ellipse id="webcirc" fill="#FFFFFF" cx="42.5" cy="40.6914894" rx="31.6489362"
                             ry="30.7446809"></ellipse>
                    <path d="M23,33.0750106 L23,53.9750647 C23,55.0276667 23.8495238,55.8750683 24.9047619,55.8750683 L61.0952381,55.8750683 C62.1504762,55.8750683 63,55.0276667 63,53.9750647 L63,33.0750106 L23,33.0750106 Z M24.9047619,25.4749962 C23.8495238,25.4749962 23,26.3223978 23,27.3749998 L23,32.1250088 L39.6369048,32.1250088 L34.4285714,25.4749962 L24.9047619,25.4749962 Z M35.8571429,25.4749962 L41.0952381,32.1250088 L63,32.1250088 L63,27.3749998 C63,26.3223978 62.1504762,25.4749962 61.0952381,25.4749962 L35.8571429,25.4749962 Z M26.3333333,27.8500007 C26.8593333,27.8500007 27.2857143,28.2753165 27.2857143,28.8000025 C27.2857143,29.3246885 26.8593333,29.7500043 26.3333333,29.7500043 C25.8073333,29.7500043 25.3809524,29.3246885 25.3809524,28.8000025 C25.3809524,28.2753165 25.8073333,27.8500007 26.3333333,27.8500007 Z M29.6666667,27.8500007 C30.1926667,27.8500007 30.6190476,28.2753165 30.6190476,28.8000025 C30.6190476,29.3246885 30.1926667,29.7500043 29.6666667,29.7500043 C29.1406667,29.7500043 28.7142857,29.3246885 28.7142857,28.8000025 C28.7142857,28.2753165 29.1406667,27.8500007 29.6666667,27.8500007 Z M33,27.8500007 C33.526,27.8500007 33.952381,28.2753165 33.952381,28.8000025 C33.952381,29.3246885 33.526,29.7500043 33,29.7500043 C32.474,29.7500043 32.047619,29.3246885 32.047619,28.8000025 C32.047619,28.2753165 32.474,27.8500007 33,27.8500007 Z M44.7857143,37.3648388 C45.4155714,37.2781036 46.0120952,37.9455274 45.827381,38.5523506 L42.0178571,51.8523807 C41.8815714,52.3342691 41.3142381,52.6471047 40.827381,52.5203744 C40.3416667,52.3939292 40.0361429,51.8147131 40.172619,51.3328722 L43.9821429,38.0328326 C44.0794286,37.6697894 44.4117143,37.4109614 44.7857143,37.3648388 Z M37.672619,39.2352119 C38.1053333,39.1799218 38.5604762,39.4610748 38.6994286,39.8734753 C38.8384286,40.2858711 38.6461905,40.7850496 38.2678571,41.0016025 L31.9434286,44.9500475 L38.2678571,48.883625 C38.6925714,49.147773 38.8452857,49.7664142 38.580381,50.1898775 C38.3154286,50.6134833 37.6805714,50.7659586 37.2559524,50.5016206 L29.6369048,45.7516115 C28.9957619,45.3382183 29.0860952,44.4719116 29.6369048,44.133616 L37.2559524,39.3836022 C37.3806667,39.3026145 37.5246667,39.2513619 37.672619,39.2352119 Z M48.1934286,39.2352119 C48.386381,39.2276119 48.5813333,39.279862 48.7440476,39.3836022 L56.3630952,44.133616 C56.9139048,44.4719116 57.0016667,45.3524208 56.3630952,45.7516115 L48.7440476,50.5016206 C48.3194286,50.7659586 47.6994286,50.6134833 47.4345238,50.1898775 C47.1695714,49.7664142 47.307381,49.147773 47.7321429,48.883625 L54.0565714,44.9500475 L47.7321429,41.0016025 C47.3802857,40.7929821 47.1974286,40.3426812 47.3005714,39.947718 C47.4037619,39.552655 47.7843333,39.2461369 48.1934286,39.2352119 Z"
                          id="Shape-web" fill="#4285F4" fill-rule="nonzero"></path>
                    <path d="M26.4,27.7654321 C25.8477133,27.7654321 25.4,28.2028323 25.4,28.742426 C25.4,29.2819872 25.8477133,29.7194199 26.4,29.7194199 C26.9522833,29.7194199 27.4,29.2819872 27.4,28.742426 C27.4,28.2028323 26.9522833,27.7654321 26.4,27.7654321 Z"
                          id="web3" fill="#FF6258"></path>
                    <path d="M29.6,27.7654321 C29.0477133,27.7654321 28.6,28.2028323 28.6,28.742426 C28.6,29.2819872 29.0477133,29.7194199 29.6,29.7194199 C30.1522833,29.7194199 30.6,29.2819872 30.6,28.742426 C30.6,28.2028323 30.1522833,27.7654321 29.6,27.7654321 Z"
                          id="web2" fill="#FFBD2E"></path>
                    <path d="M32.8,27.7654321 C32.2477133,27.7654321 31.8,28.2028323 31.8,28.742426 C31.8,29.2819872 32.2477133,29.7194199 32.8,29.7194199 C33.3522833,29.7194199 33.8,29.2819872 33.8,28.742426 C33.8,28.2028323 33.3522833,27.7654321 32.8,27.7654321 Z"
                          id="web1" fill="#29CD42"></path>
                </g>
                <g id="apps" transform="translate(310.000000, 109.000000)">
                    <g id="appscirc2">
                        <use fill="#D9E7FD" fill-rule="evenodd" xlink:href="#path-22"></use>
                        <ellipse stroke="#4285F4" stroke-width="4.83582109" cx="42.1086059" cy="42.1538398"
                                 rx="39.6906954" ry="39.7359292"></ellipse>
                    </g>
                    <ellipse id="appscirc" fill="#FFFFFF" cx="42.5" cy="40.6914894" rx="31.6489362"
                             ry="30.7446809"></ellipse>
                    <g id="apps-android"
                       transform="translate(42.820507, 30.386361) rotate(-53.000000) translate(-42.820507, -30.386361) translate(37.320507, 21.386361)"
                       fill="#A4C639">
                        <polyline id="apps10"
                                  points="0.316063835 4.9563759 0.732155852 8.36534267 1.38331728 9.42567232 1.86250373 9.07704197 1.44641171 5.66807521 0.795250282 4.60774556"></polyline>
                        <polyline id="apps9"
                                  points="9.73566996 10.8872289 10.151762 14.2961957 9.67257553 14.644826 9.0214141 13.5844964 8.60532208 10.1755296 9.08450853 9.82689926"></polyline>
                        <path d="M2.5143555,11.5678113 C2.58627226,12.1570123 2.99980106,12.8558481 3.4408694,13.1335573 L4.29150119,13.6691394 L4.51238837,15.4788282 L5.134565,16.5254926 L5.57455294,16.1475973 L5.35366575,14.3379085 L6.25830591,14.9074958 L6.4791931,16.7171846 L7.10136972,17.7638491 L7.54585836,17.3887875 L7.32497117,15.5790987 L8.18010366,16.1175145 C8.621172,16.3952237 8.91875337,16.1441232 8.84683661,15.5549222 L8.06969532,9.18794388 L1.73721421,5.20083294"
                              id="apps8"></path>
                        <path d="M6.21427888,5.98600533 L5.86247893,5.40075264 L6.11954689,5.2098833 L6.46535651,5.78034159 L6.21427888,5.98600533 Z M3.00044272,3.96248231 L2.65317569,3.38008368 L2.90571074,3.18636028 L3.25152036,3.75681857 L3.00044272,3.96248231 Z M6.34739818,2.92834905 L6.22006922,2.77653149 L5.82089701,3.8258809 C5.35003058,3.25935359 4.83934333,2.77798103 4.32259112,2.45261908 C3.82850347,2.14152739 3.38509262,2.00563847 3.00158506,2.01769346 L2.28096679,0.296360117 L2.17258422,0.299766963 L2.88866958,2.01824626 C1.98809986,2.07951625 1.48248451,3.04531195 1.66506877,4.60975842 L7.99754988,8.59686935 C7.79829138,7.03294702 6.98612545,5.28152943 5.94822598,3.97769846 L6.34739818,2.92834905 Z"
                              id="apps7"></path>
                    </g>
                    <path d="M35.0785869,39.2927609 L36.5834662,38.8252971 C36.5834662,38.8252971 40.2205953,40.8093425 42.891844,41.0151212 C45.0178488,41.1788972 47.188855,39.3478545 47.7416963,39.3818005 L49.3242893,39.3093932 L49.5327278,39.3663212 C50.0694812,40.114501 50.387442,40.8791189 50.4977739,41.6545918 L50.3722736,42.430229 L48.9830766,43.1807775 L48.1257555,43.3305866 C47.2185664,43.5363299 46.6051611,43.8926943 46.2123878,44.386673 L45.9081134,44.7682043 C45.5036615,45.2246313 44.8097568,45.4228902 43.8722307,45.439242 L42.1693301,45.3114634 C40.858919,45.1361683 39.626064,44.8724951 38.4366857,44.4878962 C37.6024169,44.2170496 36.8180897,43.896431 36.1172682,43.5154531 C35.3486561,43.1001906 34.674934,42.6374721 34.3035102,42.0979564 C33.6810436,41.225273 33.7387533,40.4153511 34.5102035,39.6576036"
                          id="Combined-Shape-apps-1" fill="#DEDEDE"></path>
                    <path d="M31.9296335,50.1154249 C31.9296335,50.1154249 31.3293505,47.9574865 35.4554545,47.281161 L40.7139722,50.0212681 C40.7139722,50.0212681 36.9077669,50.6215171 37.2910934,52.9765396 L31.9296335,50.1154249 Z M41.9417743,50.618598 L47.2000448,53.8330653 C47.2000448,53.8330653 43.6177864,53.9771311 43.5347195,56.6476149 L38.2782001,53.5204465 C38.2782001,53.5204465 37.8723843,51.0325106 41.9417743,50.618598 Z M42.9032145,50.4002512 C42.9032145,50.4002512 47.8742578,51.1555601 48.4909386,48.5870035 L51.8735329,50.4434396 C51.8735329,50.4434396 51.8592614,53.5219681 48.0649541,53.4488255 L42.9032145,50.4002512 Z"
                          id="Combined-Shape-apps" fill="#1BABE2"
                          transform="translate(41.886336, 51.964388) rotate(-5.000000) translate(-41.886336, -51.964388) "></path>
                    <path d="M42.1714273,20.6976034 L19.5661345,30.4231663 C19.2579155,30.5550727 19.0529137,30.864636 19.0529137,31.1973164 C19.0529137,31.5345279 19.258178,31.8393401 19.5661345,31.9714225 L42.1714273,41.6970404 C42.27541,41.7427468 42.3902622,41.7680085 42.4987829,41.7680085 C42.6075552,41.7680085 42.7264206,41.7399314 42.8265212,41.6970404 L65.431825,31.9714225 C65.7399018,31.8391092 65.9449036,31.5345279 65.9449036,31.1973164 C65.948731,30.8648999 65.7488249,30.5598457 65.4406169,30.4231663 L42.8265212,20.6976034 C42.6178998,20.6065864 42.3803112,20.6065864 42.1716898,20.6976034 L42.1714273,20.6976034 Z M42.4987829,22.3793497 L62.980737,31.1973164 L42.4987829,40.0152831 L22.0168288,31.1973164 L42.4987829,22.3793497 Z M59.3266808,37.7907894 C59.127759,37.8705777 58.9571592,38.0305612 58.8666269,38.2445654 C58.6855512,38.6727829 58.8865508,39.1656668 59.3092174,39.3478987 L62.9897914,40.9317434 L42.5078372,49.7497541 L22.0258831,40.9317434 L25.6976543,39.3568178 C26.1234374,39.1699559 26.3211892,38.677116 26.1402448,38.2534186 C25.9591801,37.8251902 25.4643304,37.6263078 25.0430744,37.8087926 L19.5753091,40.1578243 C19.2672323,40.2897417 19.0710224,40.5947629 19.0710224,40.9319744 C19.0710224,41.2691968 19.2672323,41.565068 19.5753091,41.6971943 L42.189536,51.4316874 C42.2936499,51.4774048 42.4083708,51.5026555 42.5168916,51.5026555 C42.6256638,51.5026555 42.7357264,51.4746004 42.8354443,51.4316874 L65.44954,41.6971943 C65.757759,41.564859 65.953958,41.2643799 65.953958,40.9319744 C65.946194,40.5947629 65.7485734,40.2899507 65.4407481,40.1578243 L59.9641909,37.7998405 C59.7536231,37.7088235 59.5261276,37.7108251 59.3272057,37.7918121 L59.3266808,37.7907894 Z M25.6796769,47.5252824 C25.480755,47.4454941 25.2533798,47.4426897 25.0426807,47.5333107 L19.5749264,49.8824304 C19.2667074,50.0143478 19.0706396,50.3284311 19.0706396,50.6654116 C19.0706396,51.0026231 19.2668386,51.3031132 19.5749264,51.4306536 L42.1891423,61.1651686 C42.2931359,61.210875 42.4079881,61.2277235 42.5164979,61.2277235 C42.6252701,61.2277235 42.7353437,61.2076637 42.8349304,61.1651686 L65.4491572,51.4306536 C65.7573653,51.2983402 65.953444,50.9978501 65.953444,50.6654116 C65.953444,50.3329951 65.7481797,50.0145567 65.4403544,49.8824304 L59.981392,47.5333107 C59.560136,47.3508699 59.0655487,47.5533595 58.8843418,47.9783876 C58.7032771,48.406671 58.9042657,48.899489 59.3268121,49.0817319 L62.9896602,50.6567124 L42.5078372,59.4746792 L22.0258831,50.6567124 L25.6976543,49.0817319 C26.1234374,48.8948919 26.3211892,48.406671 26.1402448,47.9783876 C26.0497125,47.7642624 25.8785987,47.6042899 25.6800596,47.5246555 L25.6796769,47.5252824 Z"
                          id="Shapeapps" fill="#4285F4" fill-rule="nonzero"></path>
                </g>
                <g id="3d" transform="translate(252.000000, 293.000000)">
                    <ellipse id="3d37" stroke="#4285F4" stroke-width="4.83582109" fill="#D9E7FD" cx="42.1086059"
                             cy="42.1538398" rx="42.1086059" ry="42.1538398"></ellipse>
                    <ellipse id="3d36" fill="#FFFFFF" cx="42.6489362" cy="40.7446809" rx="31.6489362"
                             ry="30.7446809"></ellipse>
                    <path d="M74.7608875,40.1556213 C74.7549723,40.1467667 74.74536,40.1393878 74.7350084,40.131271 C74.723178,40.1238921 74.7091293,40.1165132 74.6943413,40.1098722 L41.550649,26.9024056 C41.5439944,26.899454 41.5351216,26.8979782 41.52477,26.8965024 C41.5158971,26.8935509 41.5070243,26.8935509 41.4966727,26.8935509 C41.4877999,26.8935509 41.4781876,26.8935509 41.4693148,26.8965024 C41.4589632,26.8979782 41.4508298,26.899454 41.4426963,26.9024056 L8.30344049,40.1098722 C8.28791305,40.1157753 8.27534322,40.12463 8.26351279,40.131271 C8.25094295,40.1386499 8.24280953,40.1467667 8.23615491,40.1556213 C8.2302397,40.1630002 8.22654269,40.1718549 8.22654269,40.1784959 C8.22654269,40.1873505 8.22802149,40.1939915 8.23393671,40.1998946 L41.6275468,75.0444665 C41.6467713,75.0643895 41.6704321,75.080623 41.6948324,75.0909534 C41.7184933,75.1012839 41.7436329,75.1064491 41.7702514,75.1064491 C41.7968699,75.1064491 41.8220095,75.1020218 41.8464098,75.0909534 C41.8700707,75.0798851 41.8929921,75.0651273 41.9144348,75.0444665 L74.7660633,40.1998946 C74.7719785,40.1947294 74.7734573,40.1866126 74.7734573,40.1784959 C74.7712391,40.1718549 74.7682815,40.1630002 74.7608875,40.1556213 Z M60.6087342,34.6059617 L56.9309489,37.1081417 L57.107666,37.1870958 L60.7802755,34.6738475 L67.0718466,37.1885716 L63.5936999,40.064861 L57.1084054,37.1870958 L56.9324277,37.1096175 L51.2856151,34.6022723 L55.0817047,32.3974614 L60.6087342,34.6059617 Z M52.7710736,40.1556213 L56.9930587,37.2645741 L63.4850078,40.1541455 L59.4426973,43.4975184 L52.7710736,40.1556213 Z M23.826445,43.6104154 L30.4914141,40.2463816 L35.4491042,43.6089396 L28.6443881,47.5463128 L23.826445,43.6104154 L23.6970496,43.5048973 L19.5963264,40.1556213 L26.0853179,37.258671 L30.3561036,40.1556213 L23.6963102,43.5048973 L23.826445,43.6104154 Z M36.4021933,37.2616225 L41.4153385,40.1556213 L35.6317364,43.5019458 L30.6710888,40.1541455 L36.4021933,37.2616225 L36.4021933,37.2616225 Z M46.0484311,32.3908204 L51.0135151,34.6015344 L46.6843168,37.1066659 L41.6778262,34.5993207 L46.0484311,32.3908204 Z M41.5402974,34.5292213 L37.1408558,32.3258862 L41.5188547,30.3734332 L45.9123811,32.3303135 L41.5402974,34.5292213 Z M46.5497456,37.1841442 L41.5720917,40.064861 L36.5589465,37.1826685 L41.5410368,34.6664686 L46.5497456,37.1841442 Z M35.6043786,43.7137198 L41.4293871,47.6651128 L34.5359428,52.3617733 L28.7944866,47.6717538 L35.6043786,43.7137198 Z M41.6142376,47.7912918 L48.5587007,52.5004963 L41.6741292,58.194782 L34.7193144,52.5123025 L41.6142376,47.7912918 Z M35.7877503,43.6089396 L41.5728311,40.2463816 L47.3904456,43.6059881 L41.6134982,47.5404097 L35.7877503,43.6089396 Z M41.7295843,40.1541455 L46.7057594,37.2630983 L52.4575672,40.1556213 L47.5471988,43.4989942 L41.7295843,40.1541455 Z M46.8403306,37.1841442 L51.1680502,34.6708959 L56.8192992,37.18562 L52.5906595,40.064861 L46.8403306,37.1841442 Z M54.9286485,32.3362166 L51.1303407,34.5343866 L46.1682142,32.3310514 L50.0330682,30.3785984 L54.9286485,32.3362166 Z M49.898497,30.3254704 L46.0321642,32.2712825 L41.6378985,30.3195673 L45.5338073,28.5818398 L49.898497,30.3254704 Z M41.4981515,26.9673397 L45.415503,28.5324013 L41.5166365,30.2664393 L37.5970668,28.5272361 L41.4981515,26.9673397 Z M37.4780231,28.5744609 L41.3975928,30.3195673 L37.0218121,32.2653793 L33.1244244,30.3136642 L37.4780231,28.5744609 Z M32.9905927,30.3690058 L36.8857622,32.3258862 L31.9391631,34.5262698 L32.0596856,34.5941555 L37.0062847,32.3863931 L41.403508,34.5985829 L36.4236359,37.1037144 L32.0582068,34.5948934 L31.9391631,34.5270077 L28.105364,32.3221968 L32.9905927,30.3690058 Z M27.9523078,32.3819657 L31.7853675,34.5941555 L26.1474277,37.1015007 L26.2642532,37.1804548 L31.9044112,34.6627792 L36.2668827,37.1819306 L30.5365176,40.0641231 L26.2642532,37.1804548 L26.1474277,37.1015007 L22.4274965,34.591204 L27.9523078,32.3819657 Z M22.253737,34.6605655 L25.9707106,37.1811927 L19.4854161,40.064861 L15.9547718,37.1782411 L22.253737,34.6605655 Z M8.50529722,40.1556213 L15.7566121,37.2571952 L19.28282,40.1556213 L11.7423989,43.5078489 L8.50529722,40.1556213 Z M11.8459152,43.6148427 L19.3922515,40.2471195 L23.4870595,43.6133669 L15.6486594,47.5544295 L11.8459152,43.6148427 Z M15.7699214,47.6791327 L23.614976,43.7174092 L28.4270039,47.6717538 L20.3039341,52.3743174 L15.7699214,47.6791327 Z M20.4481175,52.5233709 L28.5800601,47.796457 L34.3148616,52.5115646 L25.9433527,58.2139671 L20.4481175,52.5233709 Z M26.1208092,58.3962256 L34.4982333,52.6620939 L41.4515692,58.3777784 L32.9181313,65.43642 L26.1208092,58.3962256 Z M41.7680332,74.5995197 L33.1406913,65.6659033 L41.6763474,58.5622505 L50.2837254,65.6371257 L41.7680332,74.5995197 Z M50.5025884,65.4061666 L41.8996468,58.3777784 L48.7812607,52.6517635 L57.197873,58.3600691 L50.5025884,65.4061666 Z M57.3731113,58.1763348 L48.9631536,52.5004963 L48.7405936,52.3521807 L41.7990881,47.6673265 L47.5752961,43.7129819 L54.4125459,47.6621613 L48.7405936,52.3514428 L48.9631536,52.5012342 L54.6277119,47.7861265 L62.7766607,52.4909038 L57.3731113,58.1763348 Z M62.9186259,52.3388987 L54.7800287,47.6577339 L54.5633839,47.5337687 L47.7313099,43.6052502 L52.6387206,40.2456437 L59.3155202,43.6022986 L54.5633839,47.5322929 L54.7800287,47.6577339 L59.5269892,43.7070788 L67.370565,47.6518308 L62.9186259,52.3388987 Z M67.4896087,47.5286034 L59.6519481,43.6030365 L63.6876039,40.2449058 L71.2213704,43.6000849 L67.4896087,47.5286034 Z M71.3226684,43.4953048 L63.796296,40.1563592 L67.2685276,37.2667878 L74.4939634,40.1563592 L71.3226684,43.4953048 Z"
                          id="Shape" fill="#4285F4" fill-rule="nonzero"></path>
                    <path d="M60.3666667,31.0947368 C60.2761905,31.0052632 59.2809524,30.6473684 57.7428571,30.2 C57.652381,30.2 57.5619048,30.1105263 57.5619048,30.0210526 C54.9380952,24.2947368 49.0571429,20.2684211 42.2714286,20.2684211 C35.4857143,20.2684211 29.6952381,24.2947368 27.0714286,30.0210526 C27.0714286,30.1105263 26.9809524,30.1105263 26.8904762,30.2 C25.352381,30.7368421 24.3571429,31.0947368 24.2666667,31.0947368 L23.7238095,31.3631579 L23.7238095,42.1894737 L24.2666667,42.3684211 C24.3571429,42.3684211 25.2619048,42.7263158 26.7095238,43.1736842 C26.8,43.1736842 26.8904762,43.2631579 26.8904762,43.3526316 C29.4238095,49.2578947 35.3952381,53.3736842 42.2714286,53.3736842 C49.147619,53.3736842 55.0285714,49.2578947 57.5619048,43.4421053 C57.5619048,43.3526316 57.652381,43.3526316 57.7428571,43.2631579 C59.2809524,42.7263158 60.1857143,42.3684211 60.2761905,42.3684211 L60.8190476,42.1 L60.8190476,31.2736842 L60.3666667,31.0947368 Z M42.2714286,22.0578947 C47.5190476,22.0578947 52.1333333,24.7421053 54.7571429,28.7684211 C54.9380952,29.0368421 54.6666667,29.3052632 54.3952381,29.2157895 C50.9571429,28.3210526 46.4333333,27.4263158 42.0904762,27.4263158 C37.8380952,27.4263158 33.4952381,28.3210526 30.147619,29.2157895 C29.8761905,29.3052632 29.6952381,29.0368421 29.7857143,28.7684211 C32.5,24.7421053 37.1142857,22.0578947 42.2714286,22.0578947 Z M42.2714286,51.5842105 C36.9333333,51.5842105 32.2285714,48.8105263 29.6047619,44.5157895 C29.4238095,44.2473684 29.6952381,43.9789474 29.9666667,44.0684211 C33.4952381,44.9631579 38.0190476,45.9473684 42.2714286,45.9473684 C46.7952381,45.9473684 51.2285714,45.0526316 54.5761905,44.1578947 C54.847619,44.0684211 55.0285714,44.3368421 54.9380952,44.6052632 C52.3142857,48.8105263 47.6095238,51.5842105 42.2714286,51.5842105 Z M59.1,40.7578947 C59.1,40.8473684 59.0095238,41.0263158 58.9190476,41.0263158 C56.6571429,41.8315789 49.5095238,44.2473684 42.2714286,44.2473684 C35.847619,44.2473684 28.1571429,41.8315789 25.7142857,41.0263158 C25.6238095,41.0263158 25.5333333,40.8473684 25.5333333,40.7578947 L25.5333333,32.7947368 C25.5333333,32.7052632 25.6238095,32.5263158 25.7142857,32.5263158 C28.0666667,31.7210526 35.3047619,29.3052632 42.1809524,29.3052632 C48.9666667,29.3052632 56.5666667,31.7210526 58.9190476,32.5263158 C59.0095238,32.5263158 59.1,32.7052632 59.1,32.7947368 L59.1,40.7578947 Z"
                          id="Shape3d1" fill="#4285F4" fill-rule="nonzero"></path>
                    <path d="M40.6428571,39.9526316 L46.4333333,36.6421053 C46.7047619,36.4631579 46.7047619,36.0157895 46.4333333,35.9263158 L40.6428571,32.5263158 C40.3714286,32.3473684 40.0095238,32.5263158 40.0095238,32.8842105 L40.0095238,39.5052632 C40.0095238,39.9526316 40.3714286,40.1315789 40.6428571,39.9526316 Z"
                          id="Shape3d" fill="#F44242" fill-rule="nonzero"></path>
                </g>
                <g id="e-learn" transform="translate(55.000000, 292.000000)">
                    <g id="learn9">
                        <use fill="#D9E7FD" fill-rule="evenodd" xlink:href="#path-33"></use>
                        <ellipse stroke="#4285F4" stroke-width="4.83582109" cx="42.1086059" cy="42.1538398"
                                 rx="39.6906954" ry="39.7359292"></ellipse>
                    </g>
                    <ellipse id="learn7" fill="#FFFFFF" cx="42.6489362" cy="40.7446809" rx="31.6489362"
                             ry="30.7446809"></ellipse>
                    <path d="M28.4182962,60.8208955 L56.0557962,60.8208955 C57.4111534,60.8208955 58.4718676,59.6865672 58.4718676,58.3731343 L58.4718676,23.4477612 C58.4718676,22.0746269 57.3522248,21 56.0557962,21 L28.4182962,21 C27.0629391,21 26.0022248,22.1343284 26.0022248,23.4477612 L26.0022248,58.3731343 C25.9432962,59.6865672 27.0629391,60.8208955 28.4182962,60.8208955 Z"
                          id="learn6" fill="#4285F4"></path>
                    <circle id="learn10" fill="#D9E7FD" cx="42" cy="58" r="1"></circle>
                    <polygon id="Shape" fill="#B8E986" fill-rule="nonzero"
                             points="29.4200819 55.0298507 29.4200819 24.7014925 54.9950819 24.7014925 54.9950819 55.0298507 29.4200819 55.0298507"></polygon>
                    <path d="M50.6729505,38.716263 L50.6729505,37.7164179 L49.6684538,37.7164179 L47.1343826,37.7164179 L36.6099965,37.7164179 L33.0714286,37.7164179 L33.0714286,38.716263 L36.4958492,38.716263 L36.1305777,42.0112069 L41.8607748,44.0790683 L47.590972,42.0112069 L47.2257004,38.716263 L49.6684538,38.716263 L49.6684538,40.1251356 L48.4128329,44.2835821 L51.9285714,44.2835821 L50.6729505,40.1251356 L50.6729505,38.716263 L50.6729505,38.716263 Z M49.7597717,43.3064608 L50.1707022,41.9430357 L50.5816327,43.3064608 L49.7597717,43.3064608 Z M46.5179869,41.3522181 L41.8607748,43.0337758 L37.2035628,41.3522181 L37.5003459,38.7389867 L46.2440332,38.7389867 L46.5179869,41.3522181 Z"
                          id="Shapelearn" fill="#2C5DB9" fill-rule="nonzero"></path>
                </g>
                <g id="marketing" transform="translate(0.000000, 109.000000)">
                    <g id="mark5">
                        <use fill="#D9E7FD" fill-rule="evenodd" xlink:href="#path-44"></use>
                        <ellipse stroke="#4285F4" stroke-width="4.83582109" cx="42.1086059" cy="42.1538398"
                                 rx="39.6906954" ry="39.7359292"></ellipse>
                    </g>
                    <ellipse id="mark4" fill="#FFFFFF" cx="42.6489362" cy="40.7446809" rx="31.6489362"
                             ry="30.7446809"></ellipse>
                    <path d="M23.7584303,55.2649575 C23.1206374,54.6251671 22.0943374,54.6330768 21.4661251,55.2826243 C20.8379128,55.9321719 20.8456794,56.9773868 21.4834722,57.6171772 L27.3121228,63.472488 C27.7175721,63.9171889 28.3299272,64.0994447 28.9067065,63.9470855 C29.4834858,63.7947263 29.9316593,63.3323264 30.0737584,62.7429878 C30.2158575,62.1536493 30.0289626,61.5324278 29.5870809,61.125316 L29.0022333,60.5397849 L33.9982195,58.0462301 L35.5445962,59.6009161 C37.8802554,61.9474087 41.5267024,62.2643001 44.2189633,60.3547546 C46.9112243,58.445209 47.8838893,54.8521104 46.5327921,51.8072954 L57.357429,46.4163713 L58.5419932,47.6076242 C59.1854402,48.200441 60.1731794,48.1720064 60.7827179,47.5431192 C61.3922565,46.914232 61.4073469,45.9080042 60.8169512,45.2604522 L38.9198607,23.247512 C38.5144115,22.8028111 37.9020564,22.6205553 37.3252771,22.7729145 C36.7484978,22.9252737 36.3003242,23.3876736 36.1582252,23.9770122 C36.0161261,24.5663507 36.2030209,25.1875722 36.6449027,25.594684 L37.6361698,26.6042204 L24.1351118,55.6435336 L23.7584303,55.2649575 Z M42.8750165,57.2184103 C41.4877257,58.6478868 39.2259787,58.6636946 37.8195542,57.2537441 L37.0810602,56.5117349 L43.6234231,53.2559801 C44.1801791,54.6097685 43.8851897,56.1715863 42.8750165,57.2184103 L42.8750165,57.2184103 Z M28.4619927,54.0383708 L38.9991621,31.3238028 C39.0763235,31.1597454 39.2262849,31.0435235 39.4021126,31.0115113 C39.5779403,30.9794991 39.7581518,31.0356078 39.8863461,31.162277 L42.617287,33.9031682 C42.9520248,34.2282204 42.9966502,34.7562812 42.7213701,35.1348026 L28.9278882,54.3159933 C28.8526123,54.4470179 28.6872947,54.4910864 28.5586412,54.4144231 C28.4299877,54.3377597 28.3867167,54.1693954 28.4619927,54.0383708 Z"
                          id="Shape" fill="#4285F4" fill-rule="nonzero"></path>
                    <path d="M50.6528989,31.3117329 C50.6181596,31.1254485 50.6181596,30.9342838 50.6528989,30.7479994 C50.6730126,30.6574898 50.7001511,30.5687084 50.7340645,30.4824728 C50.771771,30.3958198 50.8165662,30.3124708 50.8679877,30.2332862 C50.9744163,30.0708855 51.1124783,29.9319137 51.2738158,29.8247837 C51.3509262,29.773954 51.4324197,29.7302044 51.5173126,29.6940629 C51.6042281,29.6584597 51.6937852,29.6297765 51.7851591,29.6082774 C51.8775577,29.5914988 51.9712915,29.5832943 52.0651804,29.5837672 C52.1579294,29.5831288 52.2504688,29.5927177 52.3411435,29.6123624 C52.4336925,29.629352 52.5237042,29.6581808 52.60899,29.6981479 C52.6947141,29.7325109 52.7763806,29.7763534 52.8524868,29.8288688 C53.0148662,29.9347075 53.153169,30.0739218 53.2583148,30.2373713 C53.3104864,30.3139791 53.3540418,30.3961837 53.3881798,30.4824728 C53.4268333,30.56873 53.4554318,30.6592033 53.4734037,30.7520844 C53.4929521,30.8433515 53.5024786,30.9365044 53.5018117,31.0298661 C53.5028873,31.4078976 53.3572697,31.7714091 53.0959836,32.0429524 C53.0310541,32.1090246 52.9604343,32.1691737 52.884953,32.2226935 C52.8053127,32.2727889 52.7226323,32.3178124 52.6373979,32.3574993 C52.5508343,32.3920731 52.4611277,32.4180679 52.3695514,32.4351148 C52.2788717,32.4547272 52.1863358,32.4643157 52.0935884,32.46371 C51.9996957,32.4642759 51.9059534,32.4560707 51.813567,32.4391998 C51.7221887,32.417717 51.6326304,32.3890334 51.5457205,32.3534143 C51.4607604,32.317415 51.3792544,32.2736586 51.3022237,32.2226935 C51.1400746,32.1165684 51.001826,31.9774086 50.8963957,31.814191 C50.8457642,31.7366527 50.8022943,31.6546095 50.7665307,31.5690895 C50.7216731,31.4814658 50.6849913,31.3898407 50.6569571,31.2953928 L50.6528989,31.3117329 Z M56.9119762,28.2093783 C56.3472426,28.7656919 55.4389333,28.7612725 54.8796444,28.1994899 C54.3203555,27.6377072 54.3203555,26.7297675 54.8796444,26.1679848 C55.4389333,25.6062022 56.3472426,25.6017828 56.9119762,26.1580964 C57.4746387,26.719136 57.4764752,27.6296651 56.9160804,28.192968 L56.9119762,28.2093783 Z M58.7713996,24.7837373 C57.979129,24.7814871 57.3374253,24.139011 57.3351777,23.3457868 C57.3359411,23.2495205 57.3455289,23.1535275 57.3638203,23.0590161 C57.3840345,22.9682297 57.4113987,22.879189 57.4456563,22.7927289 C57.4826193,22.7053158 57.5278343,22.621636 57.5806857,22.5428287 C57.847983,22.1461757 58.2934954,21.9070568 58.7713996,21.9037396 C59.3536042,21.9027196 59.8788254,22.253704 60.1012215,22.7924066 C60.3236176,23.3311093 60.1991845,23.9509407 59.7861661,24.3617747 C59.5156524,24.6292953 59.1516148,24.7806703 58.7713996,24.7837373 Z M49.5617188,27.5940031 C49.5960192,27.6806132 49.6234798,27.7697731 49.6438488,27.8606656 C49.6607617,27.9540648 49.6690097,28.0488243 49.6684878,28.1437381 C49.6704528,28.5235548 49.5229765,28.8889396 49.2578378,29.1611581 C49.1893156,29.2276556 49.1151174,29.2880545 49.0360869,29.3416681 C48.9580603,29.3927152 48.8755985,29.436652 48.7896969,29.4729481 C48.7017315,29.5086563 48.6111142,29.5374611 48.518668,29.5591006 C48.4251685,29.5759281 48.3303231,29.5841675 48.2353196,29.5837156 C48.1414733,29.584259 48.047845,29.5746301 47.9560776,29.5549981 C47.8641993,29.5381644 47.7746135,29.5106264 47.6891552,29.4729481 C47.60118,29.436627 47.5172287,29.391255 47.4386587,29.3375656 C47.3598911,29.2868643 47.2869092,29.2277103 47.2210143,29.1611581 C47.1529443,29.0940576 47.0923612,29.0197781 47.0403283,28.9396231 C46.9875369,28.8626876 46.943464,28.7801313 46.9089203,28.6934731 C46.8698076,28.6068469 46.8408693,28.5159865 46.8226839,28.4227081 C46.7837868,28.2387579 46.7837868,28.0487183 46.8226839,27.8647681 C46.8408693,27.7714897 46.8698076,27.6806293 46.9089203,27.5940031 C46.943464,27.5073449 46.9875369,27.4247886 47.0403283,27.3478531 C47.3068387,26.9502703 47.75228,26.7093525 48.2312131,26.7037606 C48.3262194,26.7032392 48.4210712,26.7114791 48.5145615,26.7283756 C48.6070077,26.7500151 48.697625,26.7788199 48.7855904,26.8145281 C48.8715209,26.8507637 48.953988,26.8947033 49.0319804,26.9458081 C49.1110109,26.9994217 49.1852091,27.0598207 49.2537313,27.1263181 C49.3187912,27.1935429 49.3778737,27.2662947 49.4303108,27.3437506 C49.482376,27.4232544 49.527705,27.5069627 49.5658253,27.5940031 L49.5617188,27.5940031 Z M49.5597994,24.6657044 C48.8356852,24.339555 48.5117072,23.4854476 48.8360956,22.7577941 C49.160484,22.0301406 50.0104542,21.7043655 50.7347642,22.0300758 C51.4590742,22.3557861 51.7835649,23.209697 51.4596136,23.937547 C51.3850582,24.0903495 51.2853951,24.2294283 51.1648148,24.3489354 C50.7490763,24.7763829 50.1142171,24.9023225 49.5679883,24.6657044 L49.5597994,24.6657044 Z M53.498253,18.5437419 C53.4993497,18.9259851 53.3475741,19.2928879 53.0765468,19.5631758 C52.8055196,19.8334636 52.4376131,19.9848252 52.0543242,19.9837315 C51.9603889,19.9828116 51.866742,19.9731978 51.7745887,19.9550137 C51.6825298,19.9382538 51.5927772,19.910713 51.5071945,19.872963 C51.419038,19.8366958 51.3349329,19.7913204 51.2562553,19.7375794 C51.1772899,19.6869583 51.1041705,19.6277969 51.0382261,19.5611704 C50.7733683,19.2884633 50.6257601,18.9233936 50.6268504,18.5437419 C50.6544456,17.7601397 51.2850334,17.1312722 52.0707792,17.1037523 C52.4528077,17.1020294 52.8203888,17.2492496 53.0951048,17.5140057 C53.1604394,17.5810897 53.2196383,17.6538567 53.2719964,17.7314401 C53.3241536,17.8109445 53.3695627,17.8946535 53.4077503,17.9816947 C53.4421114,18.0683055 53.4696205,18.1574661 53.4900255,18.2483594 C53.50224,18.3463308 53.5049951,18.4452454 53.498253,18.5437419 Z M57.2245793,34.2999662 C57.26021,34.3880902 57.2889643,34.478864 57.3105822,34.5714665 C57.3274494,34.6651194 57.335675,34.7601361 57.3351545,34.8553077 C57.3322698,35.337995 57.0914532,35.7878806 56.6921802,36.0564909 C56.6153783,36.1093741 56.5329653,36.1535237 56.4464576,36.1881274 C56.3599817,36.2273081 56.2692791,36.2562967 56.1761626,36.2745138 C55.9925318,36.3134785 55.8028221,36.3134785 55.6191913,36.2745138 C55.5260748,36.2562967 55.4353722,36.2273081 55.3488964,36.1881274 C55.2623886,36.1535237 55.1799757,36.1093741 55.1031737,36.0564909 C55.0231579,36.0043674 54.9490074,35.943679 54.8820233,35.8754907 C54.8155867,35.8094811 54.7565353,35.7363723 54.7059221,35.6574677 C54.6523259,35.578761 54.6070327,35.4946637 54.5707747,35.4065356 C54.533197,35.3209154 54.5057081,35.2311781 54.4888671,35.1391489 C54.4692691,35.047222 54.459657,34.9534308 54.4601995,34.8594214 C54.4597483,34.7642526 54.4679734,34.6692422 54.4847717,34.5755801 C54.5063897,34.4829776 54.535144,34.3922039 54.5707747,34.3040798 C54.6070077,34.2180289 54.6508682,34.1354237 54.7018267,34.0572614 C54.7554297,33.9781552 54.8157182,33.9038349 54.8820233,33.8351248 C55.1537692,33.569525 55.5185197,33.4217923 55.897677,33.4237607 C55.992426,33.4232378 56.0870209,33.4315001 56.180258,33.4484425 C56.2709884,33.4688632 56.3599923,33.4963711 56.4464576,33.5307154 C56.5333552,33.5688847 56.6169196,33.6142932 56.6962756,33.6664655 C56.7735971,33.7189938 56.8462225,33.7781791 56.9133306,33.8433521 C56.9797126,33.9119935 57.0400067,33.9863208 57.0935272,34.0654887 C57.1439051,34.1396782 57.1877548,34.2181338 57.2245793,34.2999662 L57.2245793,34.2999662 Z M58.4206001,33.5326381 C58.1743912,32.9873655 58.2925527,32.3474907 58.7175035,31.9248313 C58.8373457,31.8041009 58.9767442,31.7042721 59.1298692,31.6295199 C59.8594486,31.3050051 60.7153883,31.6300602 61.0418724,32.3556298 C61.3683566,33.0811995 61.0418075,33.9326479 60.3124252,34.2576005 C59.5830428,34.582553 58.7269061,34.2580117 58.3999818,33.5326381 L58.4206001,33.5326381 Z M65.5506254,30.0161641 C65.8149195,30.2885776 65.9618827,30.6530779 65.9601628,31.0319045 C65.9326909,31.8110648 65.304921,32.4363675 64.5226866,32.4637314 C64.1436975,32.4648126 63.7792651,32.3184415 63.5070339,32.0558035 C63.4400394,31.9878602 63.3809645,31.9125963 63.3309328,31.8314432 C63.2772599,31.7534407 63.2319622,31.6700376 63.1957855,31.5826072 C63.1581015,31.4977417 63.1306087,31.4087413 63.113878,31.317454 C63.0941461,31.2180494 63.0845415,31.1169142 63.0852104,31.0155874 C63.0841186,30.6355109 63.2352159,30.270688 63.5050321,30.0019322 C63.7748482,29.7331765 64.1411106,29.582673 64.5226866,29.5837605 C64.6174356,29.583242 64.7120304,29.5914353 64.8052674,29.6082362 C64.8959977,29.6284863 64.9850015,29.6557644 65.0714667,29.6898217 C65.1583643,29.7276722 65.2419286,29.7727015 65.3212845,29.824438 C65.4010154,29.8826384 65.4750598,29.9481969 65.5424347,30.0202433 L65.5506254,30.0161641 Z"
                          id="Shape" fill="#F6A623" fill-rule="nonzero"></path>
                </g>
                <path d="M246.317729,169.815741 L246.317729,173.511741 C246.317729,174.538413 246.000399,175.233739 245.365729,175.597741 C244.73106,175.961743 243.615737,176.143741 242.019729,176.143741 L238.141729,176.143741 L238.141729,167.057741 L242.005729,167.057741 C243.545737,167.057741 244.649393,167.249073 245.316729,167.631741 C245.984066,168.01441 246.317729,168.742402 246.317729,169.815741 Z M244.133729,173.511741 L244.133729,169.773741 C244.133729,169.335072 243.956398,169.031742 243.601729,168.863741 C243.247061,168.69574 242.7104,168.611741 241.991729,168.611741 L240.325729,168.611741 L240.325729,174.589741 L241.921729,174.589741 C242.761734,174.589741 243.340394,174.526742 243.657729,174.400741 C243.975064,174.27474 244.133729,173.97841 244.133729,173.511741 Z M250.097729,168.569741 L248.053729,168.569741 L248.053729,166.917741 L250.097729,166.917741 L250.097729,168.569741 Z M250.097729,176.143741 L248.053729,176.143741 L248.053729,169.367741 L250.097729,169.367741 L250.097729,176.143741 Z M257.783729,173.497741 L257.783729,174.351741 C257.783729,174.687743 257.72073,174.977073 257.594729,175.219741 C257.468729,175.462409 257.310064,175.651407 257.118729,175.786741 C256.927395,175.922075 256.677731,176.027074 256.369729,176.101741 C256.061728,176.176408 255.765397,176.225408 255.480729,176.248741 C255.196061,176.272075 254.862398,176.283741 254.479729,176.283741 C253.742392,176.283741 252.851068,176.213742 251.805729,176.073741 L251.805729,174.715741 C253.103069,174.911742 254.003727,175.009741 254.507729,175.009741 C254.909065,175.009741 255.219395,174.970075 255.438729,174.890741 C255.658064,174.811407 255.767729,174.655076 255.767729,174.421741 L255.767729,174.001741 C255.767729,173.787073 255.707063,173.626075 255.585729,173.518741 C255.464395,173.411407 255.203065,173.357741 254.801729,173.357741 L253.919729,173.357741 C253.210392,173.357741 252.657398,173.215409 252.260729,172.930741 C251.864061,172.646073 251.665729,172.228411 251.665729,171.677741 L251.665729,170.851741 C251.665729,170.235738 251.959726,169.811076 252.547729,169.577741 C253.135732,169.344407 253.966391,169.227741 255.039729,169.227741 C255.487732,169.227741 256.29039,169.269741 257.447729,169.353741 L257.447729,170.655741 C255.991722,170.543741 255.170397,170.487741 254.983729,170.487741 C254.414393,170.487741 254.055063,170.527407 253.905729,170.606741 C253.756395,170.686075 253.681729,170.83774 253.681729,171.061741 L253.681729,171.425741 C253.681729,171.537742 253.740062,171.640407 253.856729,171.733741 C253.973397,171.827075 254.153061,171.873741 254.395729,171.873741 L255.291729,171.873741 C256.953071,171.873741 257.783729,172.415069 257.783729,173.497741 Z M265.553729,173.301741 L261.157729,173.301741 L261.157729,173.917741 C261.157729,174.30041 261.293061,174.578074 261.563729,174.750741 C261.834397,174.923409 262.343059,175.009741 263.089729,175.009741 C263.761733,175.009741 264.517725,174.911742 265.357729,174.715741 L265.357729,176.017741 C264.499058,176.195075 263.612401,176.283741 262.697729,176.283741 C260.299051,176.283741 259.099729,175.551082 259.099729,174.085741 L259.099729,171.649741 C259.099729,170.781737 259.379727,170.161076 259.939729,169.787741 C260.499732,169.414406 261.335057,169.227741 262.445729,169.227741 C263.491068,169.227741 264.270393,169.405073 264.783729,169.759741 C265.297065,170.11441 265.553729,170.744403 265.553729,171.649741 L265.553729,173.301741 Z M263.607729,172.139741 L263.607729,171.159741 C263.607729,170.945073 263.521397,170.779408 263.348729,170.662741 C263.176062,170.546074 262.865732,170.487741 262.417729,170.487741 C261.92306,170.487741 261.589397,170.546074 261.416729,170.662741 C261.244062,170.779408 261.157729,170.945073 261.157729,171.159741 L261.157729,172.139741 L263.607729,172.139741 Z M273.659729,176.143741 L271.615729,176.143741 L271.615729,171.439741 C271.615729,171.066406 271.55273,170.814408 271.426729,170.683741 C271.300729,170.553074 270.999732,170.487741 270.523729,170.487741 C269.935726,170.487741 269.562397,170.55074 269.403729,170.676741 C269.245062,170.802742 269.165729,171.057073 269.165729,171.439741 L269.165729,176.143741 L267.121729,176.143741 L267.121729,169.367741 L269.137729,169.367741 L269.137729,170.193741 C269.296397,169.549738 270.019723,169.227741 271.307729,169.227741 C272.203734,169.227741 272.819728,169.388739 273.155729,169.710741 C273.491731,170.032743 273.659729,170.520404 273.659729,171.173741 L273.659729,176.143741 Z M271.265729,166.917741 C271.527064,166.917741 271.718395,166.763743 271.839729,166.455741 L272.413729,166.791741 C272.348396,167.015742 272.20373,167.263073 271.979729,167.533741 C271.755728,167.804409 271.475731,167.939741 271.139729,167.939741 C270.906395,167.939741 270.603065,167.862742 270.229729,167.708741 C269.856394,167.55474 269.618397,167.477741 269.515729,167.477741 C269.245061,167.477741 269.049063,167.63174 268.927729,167.939741 L268.367729,167.603741 C268.42373,167.389073 268.566062,167.151076 268.794729,166.889741 C269.023397,166.628406 269.305728,166.497741 269.641729,166.497741 C269.856397,166.497741 270.143394,166.56774 270.502729,166.707741 C270.862064,166.847742 271.116395,166.917741 271.265729,166.917741 Z M282.143729,171.817741 L282.143729,173.819741 C282.143729,174.25841 282.07373,174.634073 281.933729,174.946741 C281.793729,175.259409 281.621064,175.502074 281.415729,175.674741 C281.210395,175.847409 280.942064,175.980407 280.610729,176.073741 C280.279394,176.167075 279.976064,176.225408 279.700729,176.248741 C279.425395,176.272075 279.091731,176.283741 278.699729,176.283741 C278.307727,176.283741 277.974064,176.272075 277.698729,176.248741 C277.423395,176.225408 277.120064,176.167075 276.788729,176.073741 C276.457394,175.980407 276.189064,175.847409 275.983729,175.674741 C275.778395,175.502074 275.60573,175.259409 275.465729,174.946741 C275.325729,174.634073 275.255729,174.25841 275.255729,173.819741 L275.255729,171.817741 C275.255729,171.351072 275.328062,170.952076 275.472729,170.620741 C275.617397,170.289406 275.794728,170.035075 276.004729,169.857741 C276.21473,169.680407 276.487728,169.542742 276.823729,169.444741 C277.159731,169.346741 277.460728,169.286075 277.726729,169.262741 C277.992731,169.239408 278.317061,169.227741 278.699729,169.227741 C279.082398,169.227741 279.406728,169.239408 279.672729,169.262741 C279.938731,169.286075 280.239728,169.346741 280.575729,169.444741 C280.911731,169.542742 281.184728,169.680407 281.394729,169.857741 C281.60473,170.035075 281.782062,170.289406 281.926729,170.620741 C282.071397,170.952076 282.143729,171.351072 282.143729,171.817741 Z M280.099729,174.057741 L280.099729,171.495741 C280.099729,171.131739 280.006397,170.872742 279.819729,170.718741 C279.633062,170.56474 279.259732,170.487741 278.699729,170.487741 C278.139727,170.487741 277.766397,170.56474 277.579729,170.718741 C277.393062,170.872742 277.299729,171.131739 277.299729,171.495741 L277.299729,174.057741 C277.299729,174.41241 277.390728,174.65974 277.572729,174.799741 C277.75473,174.939742 278.130393,175.009741 278.699729,175.009741 C279.269066,175.009741 279.644728,174.939742 279.826729,174.799741 C280.00873,174.65974 280.099729,174.41241 280.099729,174.057741 Z M293.063729,176.143741 L291.061729,176.143741 L291.061729,175.527741 C290.912395,175.798409 290.697731,175.992074 290.417729,176.108741 C290.137728,176.225408 289.6244,176.283741 288.877729,176.283741 C287.963058,176.283741 287.356398,176.143742 287.057729,175.863741 C286.759061,175.58374 286.609729,175.000412 286.609729,174.113741 C286.609729,173.31107 286.763728,172.753409 287.071729,172.440741 C287.379731,172.128073 287.930392,171.971741 288.723729,171.971741 L291.019729,171.971741 L291.019729,171.509741 C291.019729,171.099072 290.924064,170.826075 290.732729,170.690741 C290.541395,170.555407 290.137732,170.487741 289.521729,170.487741 C288.94306,170.487741 288.149734,170.543741 287.141729,170.655741 L287.141729,169.367741 C287.9164,169.274407 288.779725,169.227741 289.731729,169.227741 C290.982402,169.227741 291.850394,169.379406 292.335729,169.682741 C292.821065,169.986076 293.063729,170.585737 293.063729,171.481741 L293.063729,176.143741 Z M291.019729,174.407741 L291.019729,173.091741 L289.619729,173.091741 C289.171727,173.091741 288.89173,173.143074 288.779729,173.245741 C288.667729,173.348408 288.611729,173.623739 288.611729,174.071741 C288.611729,174.51041 288.670062,174.776407 288.786729,174.869741 C288.903397,174.963075 289.199727,175.009741 289.675729,175.009741 C289.909064,175.009741 290.081729,175.007408 290.193729,175.002741 C290.30573,174.998074 290.427062,174.986408 290.557729,174.967741 C290.688397,174.949074 290.779396,174.918741 290.830729,174.876741 C290.882063,174.834741 290.926396,174.776408 290.963729,174.701741 C291.001063,174.627074 291.019729,174.529075 291.019729,174.407741 Z M301.785729,171.509741 L301.785729,173.735741 C301.785729,174.743746 301.561732,175.420406 301.113729,175.765741 C300.665727,176.111076 299.937734,176.283741 298.929729,176.283741 C298.29506,176.283741 297.821398,176.232408 297.508729,176.129741 C297.196061,176.027074 296.993063,175.803076 296.899729,175.457741 L296.899729,179.055741 L294.855729,179.055741 L294.855729,169.367741 L296.787729,169.367741 L296.787729,170.039741 C296.909063,169.741073 297.149394,169.531075 297.508729,169.409741 C297.868064,169.288407 298.393059,169.227741 299.083729,169.227741 C299.662399,169.227741 300.133728,169.274407 300.497729,169.367741 C300.861731,169.461075 301.137062,169.61274 301.323729,169.822741 C301.510397,170.032742 301.634062,170.26374 301.694729,170.515741 C301.755396,170.767742 301.785729,171.099072 301.785729,171.509741 Z M299.741729,174.001741 L299.741729,171.495741 C299.741729,171.057072 299.660063,170.779408 299.496729,170.662741 C299.333395,170.546074 298.929733,170.487741 298.285729,170.487741 C297.70706,170.487741 297.331397,170.562407 297.158729,170.711741 C296.986062,170.861075 296.899729,171.122406 296.899729,171.495741 L296.899729,174.001741 C296.899729,174.403076 296.983729,174.671407 297.151729,174.806741 C297.31973,174.942075 297.702393,175.009741 298.299729,175.009741 C298.897066,175.009741 299.286728,174.942075 299.468729,174.806741 C299.65073,174.671407 299.741729,174.403076 299.741729,174.001741 Z M310.311729,171.509741 L310.311729,173.735741 C310.311729,174.743746 310.087732,175.420406 309.639729,175.765741 C309.191727,176.111076 308.463734,176.283741 307.455729,176.283741 C306.82106,176.283741 306.347398,176.232408 306.034729,176.129741 C305.722061,176.027074 305.519063,175.803076 305.425729,175.457741 L305.425729,179.055741 L303.381729,179.055741 L303.381729,169.367741 L305.313729,169.367741 L305.313729,170.039741 C305.435063,169.741073 305.675394,169.531075 306.034729,169.409741 C306.394064,169.288407 306.919059,169.227741 307.609729,169.227741 C308.188399,169.227741 308.659728,169.274407 309.023729,169.367741 C309.387731,169.461075 309.663062,169.61274 309.849729,169.822741 C310.036397,170.032742 310.160062,170.26374 310.220729,170.515741 C310.281396,170.767742 310.311729,171.099072 310.311729,171.509741 Z M308.267729,174.001741 L308.267729,171.495741 C308.267729,171.057072 308.186063,170.779408 308.022729,170.662741 C307.859395,170.546074 307.455733,170.487741 306.811729,170.487741 C306.23306,170.487741 305.857397,170.562407 305.684729,170.711741 C305.512062,170.861075 305.425729,171.122406 305.425729,171.495741 L305.425729,174.001741 C305.425729,174.403076 305.509729,174.671407 305.677729,174.806741 C305.84573,174.942075 306.228393,175.009741 306.825729,175.009741 C307.423066,175.009741 307.812728,174.942075 307.994729,174.806741 C308.17673,174.671407 308.267729,174.403076 308.267729,174.001741 Z M317.745729,173.497741 L317.745729,174.351741 C317.745729,174.687743 317.68273,174.977073 317.556729,175.219741 C317.430729,175.462409 317.272064,175.651407 317.080729,175.786741 C316.889395,175.922075 316.639731,176.027074 316.331729,176.101741 C316.023728,176.176408 315.727397,176.225408 315.442729,176.248741 C315.158061,176.272075 314.824398,176.283741 314.441729,176.283741 C313.704392,176.283741 312.813068,176.213742 311.767729,176.073741 L311.767729,174.715741 C313.065069,174.911742 313.965727,175.009741 314.469729,175.009741 C314.871065,175.009741 315.181395,174.970075 315.400729,174.890741 C315.620064,174.811407 315.729729,174.655076 315.729729,174.421741 L315.729729,174.001741 C315.729729,173.787073 315.669063,173.626075 315.547729,173.518741 C315.426395,173.411407 315.165065,173.357741 314.763729,173.357741 L313.881729,173.357741 C313.172392,173.357741 312.619398,173.215409 312.222729,172.930741 C311.826061,172.646073 311.627729,172.228411 311.627729,171.677741 L311.627729,170.851741 C311.627729,170.235738 311.921726,169.811076 312.509729,169.577741 C313.097732,169.344407 313.928391,169.227741 315.001729,169.227741 C315.449732,169.227741 316.25239,169.269741 317.409729,169.353741 L317.409729,170.655741 C315.953722,170.543741 315.132397,170.487741 314.945729,170.487741 C314.376393,170.487741 314.017063,170.527407 313.867729,170.606741 C313.718395,170.686075 313.643729,170.83774 313.643729,171.061741 L313.643729,171.425741 C313.643729,171.537742 313.702062,171.640407 313.818729,171.733741 C313.935397,171.827075 314.115061,171.873741 314.357729,171.873741 L315.253729,171.873741 C316.915071,171.873741 317.745729,172.415069 317.745729,173.497741 Z"
                      id="Diseño-apps" fill="#4285F4"
                      transform="translate(277.943729, 172.755741) rotate(70.000000) translate(-277.943729, -172.755741) "></path>
                <path d="M165.768,113.672 L165.768,117.368 C165.768,118.394672 165.45067,119.089998 164.816,119.454 C164.18133,119.818002 163.066008,120 161.47,120 L157.592,120 L157.592,110.914 L161.456,110.914 C162.996008,110.914 164.099663,111.105331 164.767,111.488 C165.434337,111.870669 165.768,112.598661 165.768,113.672 Z M163.584,117.368 L163.584,113.63 C163.584,113.191331 163.406668,112.888001 163.052,112.72 C162.697332,112.551999 162.16067,112.468 161.442,112.468 L159.776,112.468 L159.776,118.446 L161.372,118.446 C162.212004,118.446 162.790665,118.383001 163.108,118.257 C163.425335,118.130999 163.584,117.834669 163.584,117.368 Z M169.548,112.426 L167.504,112.426 L167.504,110.774 L169.548,110.774 L169.548,112.426 Z M169.548,120 L167.504,120 L167.504,113.224 L169.548,113.224 L169.548,120 Z M177.234,117.354 L177.234,118.208 C177.234,118.544002 177.171001,118.833332 177.045,119.076 C176.918999,119.318668 176.760334,119.507666 176.569,119.643 C176.377666,119.778334 176.128002,119.883333 175.82,119.958 C175.511998,120.032667 175.215668,120.081667 174.931,120.105 C174.646332,120.128333 174.312669,120.14 173.93,120.14 C173.192663,120.14 172.301339,120.070001 171.256,119.93 L171.256,118.572 C172.55334,118.768001 173.453997,118.866 173.958,118.866 C174.359335,118.866 174.669666,118.826334 174.889,118.747 C175.108334,118.667666 175.218,118.511334 175.218,118.278 L175.218,117.858 C175.218,117.643332 175.157334,117.482334 175.036,117.375 C174.914666,117.267666 174.653335,117.214 174.252,117.214 L173.37,117.214 C172.660663,117.214 172.107669,117.071668 171.711,116.787 C171.314331,116.502332 171.116,116.084669 171.116,115.534 L171.116,114.708 C171.116,114.091997 171.409997,113.667334 171.998,113.434 C172.586003,113.200665 173.416661,113.084 174.49,113.084 C174.938002,113.084 175.740661,113.126 176.898,113.21 L176.898,114.512 C175.441993,114.399999 174.620668,114.344 174.434,114.344 C173.864664,114.344 173.505334,114.383666 173.356,114.463 C173.206666,114.542334 173.132,114.693999 173.132,114.918 L173.132,115.282 C173.132,115.394001 173.190333,115.496666 173.307,115.59 C173.423667,115.683334 173.603332,115.73 173.846,115.73 L174.742,115.73 C176.403342,115.73 177.234,116.271328 177.234,117.354 Z M185.004,117.158 L180.608,117.158 L180.608,117.774 C180.608,118.156669 180.743332,118.434332 181.014,118.607 C181.284668,118.779668 181.79333,118.866 182.54,118.866 C183.212003,118.866 183.967996,118.768001 184.808,118.572 L184.808,119.874 C183.949329,120.051334 183.062671,120.14 182.148,120.14 C179.749321,120.14 178.55,119.407341 178.55,117.942 L178.55,115.506 C178.55,114.637996 178.829997,114.017335 179.39,113.644 C179.950003,113.270665 180.785328,113.084 181.896,113.084 C182.941339,113.084 183.720664,113.261332 184.234,113.616 C184.747336,113.970668 185.004,114.600662 185.004,115.506 L185.004,117.158 Z M183.058,115.996 L183.058,115.016 C183.058,114.801332 182.971668,114.635667 182.799,114.519 C182.626332,114.402333 182.316002,114.344 181.868,114.344 C181.373331,114.344 181.039668,114.402333 180.867,114.519 C180.694332,114.635667 180.608,114.801332 180.608,115.016 L180.608,115.996 L183.058,115.996 Z M193.11,120 L191.066,120 L191.066,115.296 C191.066,114.922665 191.003001,114.670667 190.877,114.54 C190.750999,114.409333 190.450002,114.344 189.974,114.344 C189.385997,114.344 189.012667,114.406999 188.854,114.533 C188.695333,114.659001 188.616,114.913331 188.616,115.296 L188.616,120 L186.572,120 L186.572,113.224 L188.588,113.224 L188.588,114.05 C188.746667,113.405997 189.469994,113.084 190.758,113.084 C191.654004,113.084 192.269998,113.244998 192.606,113.567 C192.942002,113.889002 193.11,114.376663 193.11,115.03 L193.11,120 Z M190.716,110.774 C190.977335,110.774 191.168666,110.620002 191.29,110.312 L191.864,110.648 C191.798666,110.872001 191.654001,111.119332 191.43,111.39 C191.205999,111.660668 190.926002,111.796 190.59,111.796 C190.356666,111.796 190.053335,111.719001 189.68,111.565 C189.306665,111.410999 189.068667,111.334 188.966,111.334 C188.695332,111.334 188.499334,111.487998 188.378,111.796 L187.818,111.46 C187.874,111.245332 188.016332,111.007335 188.245,110.746 C188.473668,110.484665 188.755998,110.354 189.092,110.354 C189.306668,110.354 189.593665,110.423999 189.953,110.564 C190.312335,110.704001 190.566666,110.774 190.716,110.774 Z M201.594,115.674 L201.594,117.676 C201.594,118.114669 201.524001,118.490332 201.384,118.803 C201.243999,119.115668 201.071334,119.358332 200.866,119.531 C200.660666,119.703668 200.392335,119.836666 200.061,119.93 C199.729665,120.023334 199.426335,120.081667 199.151,120.105 C198.875665,120.128333 198.542002,120.14 198.15,120.14 C197.757998,120.14 197.424335,120.128333 197.149,120.105 C196.873665,120.081667 196.570335,120.023334 196.239,119.93 C195.907665,119.836666 195.639334,119.703668 195.434,119.531 C195.228666,119.358332 195.056001,119.115668 194.916,118.803 C194.775999,118.490332 194.706,118.114669 194.706,117.676 L194.706,115.674 C194.706,115.207331 194.778333,114.808335 194.923,114.477 C195.067667,114.145665 195.244999,113.891334 195.455,113.714 C195.665001,113.536666 195.937998,113.399 196.274,113.301 C196.610002,113.203 196.910999,113.142333 197.177,113.119 C197.443001,113.095667 197.767331,113.084 198.15,113.084 C198.532669,113.084 198.856999,113.095667 199.123,113.119 C199.389001,113.142333 199.689998,113.203 200.026,113.301 C200.362002,113.399 200.634999,113.536666 200.845,113.714 C201.055001,113.891334 201.232333,114.145665 201.377,114.477 C201.521667,114.808335 201.594,115.207331 201.594,115.674 Z M199.55,117.914 L199.55,115.352 C199.55,114.987998 199.456668,114.729001 199.27,114.575 C199.083332,114.420999 198.710003,114.344 198.15,114.344 C197.589997,114.344 197.216668,114.420999 197.03,114.575 C196.843332,114.729001 196.75,114.987998 196.75,115.352 L196.75,117.914 C196.75,118.268668 196.840999,118.515999 197.023,118.656 C197.205001,118.796001 197.580664,118.866 198.15,118.866 C198.719336,118.866 199.094999,118.796001 199.277,118.656 C199.459001,118.515999 199.55,118.268668 199.55,117.914 Z M216.91,113.224 L214.698,120 L212.626,120 L211.282,115.422 L209.966,120 L207.894,120 L205.626,113.224 L207.712,113.224 L208.972,118.138 L210.316,113.224 L212.318,113.224 L213.718,118.138 L214.922,113.224 L216.91,113.224 Z M224.176,117.158 L219.78,117.158 L219.78,117.774 C219.78,118.156669 219.915332,118.434332 220.186,118.607 C220.456668,118.779668 220.96533,118.866 221.712,118.866 C222.384003,118.866 223.139996,118.768001 223.98,118.572 L223.98,119.874 C223.121329,120.051334 222.234671,120.14 221.32,120.14 C218.921321,120.14 217.722,119.407341 217.722,117.942 L217.722,115.506 C217.722,114.637996 218.001997,114.017335 218.562,113.644 C219.122003,113.270665 219.957328,113.084 221.068,113.084 C222.113339,113.084 222.892664,113.261332 223.406,113.616 C223.919336,113.970668 224.176,114.600662 224.176,115.506 L224.176,117.158 Z M222.23,115.996 L222.23,115.016 C222.23,114.801332 222.143668,114.635667 221.971,114.519 C221.798332,114.402333 221.488002,114.344 221.04,114.344 C220.545331,114.344 220.211668,114.402333 220.039,114.519 C219.866332,114.635667 219.78,114.801332 219.78,115.016 L219.78,115.996 L222.23,115.996 Z M232.688,115.366 L232.688,117.592 C232.688,118.516005 232.410336,119.171665 231.855,119.559 C231.299664,119.946335 230.406006,120.14 229.174,120.14 C227.87666,120.14 226.980669,119.937002 226.486,119.531 C225.991331,119.124998 225.744,118.478671 225.744,117.592 L225.744,110.2 L227.788,110.2 L227.788,113.896 C227.909334,113.587998 228.135665,113.375667 228.467,113.259 C228.798335,113.142333 229.304663,113.084 229.986,113.084 C230.56467,113.084 231.035998,113.130666 231.4,113.224 C231.764002,113.317334 232.039332,113.468999 232.226,113.679 C232.412668,113.889001 232.536333,114.119999 232.597,114.372 C232.657667,114.624001 232.688,114.955331 232.688,115.366 Z M230.644,117.858 L230.644,115.352 C230.644,114.913331 230.562334,114.635667 230.399,114.519 C230.235666,114.402333 229.832003,114.344 229.188,114.344 C228.60933,114.344 228.231334,114.418666 228.054,114.568 C227.876666,114.717334 227.788,114.978665 227.788,115.352 L227.788,117.858 C227.788,118.259335 227.874332,118.527666 228.047,118.663 C228.219668,118.798334 228.604664,118.866 229.202,118.866 C229.799336,118.866 230.188999,118.798334 230.371,118.663 C230.553001,118.527666 230.644,118.259335 230.644,117.858 Z"
                      id="Diseño-web" fill="#4285F4"></path>
                <path d="M88.966,175.234642 L86.992,175.234642 L86.992,168.514642 L86.95,168.514642 L84.654,175.234642 L82.904,175.234642 L80.538,168.514642 L80.482,168.514642 L80.482,175.234642 L78.48,175.234642 L78.48,166.148642 L81.588,166.148642 L83.828,172.644642 L86.04,166.148642 L88.966,166.148642 L88.966,175.234642 Z M96.946,175.234642 L94.944,175.234642 L94.944,174.618642 C94.7946659,174.88931 94.5800014,175.082975 94.3,175.199642 C94.0199986,175.31631 93.5066704,175.374642 92.76,175.374642 C91.8453288,175.374642 91.2386682,175.234644 90.94,174.954642 C90.6413318,174.674641 90.492,174.091313 90.492,173.204642 C90.492,172.401972 90.6459985,171.844311 90.954,171.531642 C91.2620015,171.218974 91.8126627,171.062642 92.606,171.062642 L94.902,171.062642 L94.902,170.600642 C94.902,170.189974 94.8063343,169.916976 94.615,169.781642 C94.4236657,169.646308 94.0200031,169.578642 93.404,169.578642 C92.8253304,169.578642 92.032005,169.634642 91.024,169.746642 L91.024,168.458642 C91.7986705,168.365308 92.6619952,168.318642 93.614,168.318642 C94.8646729,168.318642 95.7326642,168.470307 96.218,168.773642 C96.7033358,169.076977 96.946,169.676638 96.946,170.572642 L96.946,175.234642 Z M94.902,173.498642 L94.902,172.182642 L93.502,172.182642 C93.0539978,172.182642 92.7740006,172.233975 92.662,172.336642 C92.5499994,172.439309 92.494,172.71464 92.494,173.162642 C92.494,173.601311 92.5523328,173.867308 92.669,173.960642 C92.7856673,174.053976 93.0819976,174.100642 93.558,174.100642 C93.7913345,174.100642 93.9639994,174.098309 94.076,174.093642 C94.1880006,174.088976 94.3093327,174.077309 94.44,174.058642 C94.5706673,174.039976 94.6616664,174.009642 94.713,173.967642 C94.7643336,173.925642 94.8086665,173.867309 94.846,173.792642 C94.8833335,173.717975 94.902,173.619976 94.902,173.498642 Z M103.176,170.012642 L102.476,170.012642 C101.915997,170.012642 101.493668,170.098975 101.209,170.271642 C100.924332,170.44431 100.782,170.74064 100.782,171.160642 L100.782,175.234642 L98.738,175.234642 L98.738,168.458642 L100.684,168.458642 L100.684,169.648642 C100.693333,169.312641 100.886998,169.006977 101.265,168.731642 C101.643002,168.456308 102.037331,168.318642 102.448,168.318642 L103.176,168.318642 L103.176,170.012642 Z M111.184,175.234642 L108.874,175.234642 L106.424,171.426642 L108.65,168.458642 L110.988,168.458642 L108.636,171.412642 L111.184,175.234642 Z M106.34,175.234642 L104.296,175.234642 L104.296,165.434642 L106.34,165.434642 L106.34,175.234642 Z M118.114,172.392642 L113.718,172.392642 L113.718,173.008642 C113.718,173.391311 113.853332,173.668975 114.124,173.841642 C114.394668,174.01431 114.90333,174.100642 115.65,174.100642 C116.322003,174.100642 117.077996,174.002643 117.918,173.806642 L117.918,175.108642 C117.059329,175.285977 116.172671,175.374642 115.258,175.374642 C112.859321,175.374642 111.66,174.641983 111.66,173.176642 L111.66,170.740642 C111.66,169.872638 111.939997,169.251977 112.5,168.878642 C113.060003,168.505307 113.895328,168.318642 115.006,168.318642 C116.051339,168.318642 116.830664,168.495974 117.344,168.850642 C117.857336,169.205311 118.114,169.835304 118.114,170.740642 L118.114,172.392642 Z M116.168,171.230642 L116.168,170.250642 C116.168,170.035975 116.081668,169.87031 115.909,169.753642 C115.736332,169.636975 115.426002,169.578642 114.978,169.578642 C114.483331,169.578642 114.149668,169.636975 113.977,169.753642 C113.804332,169.87031 113.718,170.035975 113.718,170.250642 L113.718,171.230642 L116.168,171.230642 Z M124.204,175.304642 C123.811998,175.351309 123.434002,175.374642 123.07,175.374642 C122.752665,175.374642 122.475001,175.362976 122.237,175.339642 C121.998999,175.316309 121.751668,175.260309 121.495,175.171642 C121.238332,175.082975 121.028334,174.96631 120.865,174.821642 C120.701666,174.676975 120.566334,174.471644 120.459,174.205642 C120.351666,173.939641 120.298,173.624644 120.298,173.260642 L120.298,169.718642 L118.926,169.718642 L118.926,168.458642 L120.298,168.458642 L120.298,166.498642 L122.342,166.498642 L122.342,168.458642 L124.204,168.458642 L124.204,169.718642 L122.342,169.718642 L122.342,172.910642 C122.342,173.377311 122.411999,173.692308 122.552,173.855642 C122.692001,174.018976 122.999998,174.100642 123.476,174.100642 C123.634667,174.100642 123.877332,174.077309 124.204,174.030642 L124.204,175.304642 Z M127.48,167.660642 L125.436,167.660642 L125.436,166.008642 L127.48,166.008642 L127.48,167.660642 Z M127.48,175.234642 L125.436,175.234642 L125.436,168.458642 L127.48,168.458642 L127.48,175.234642 Z M135.866,175.234642 L133.822,175.234642 L133.822,170.530642 C133.822,170.157307 133.759001,169.90531 133.633,169.774642 C133.506999,169.643975 133.206002,169.578642 132.73,169.578642 C132.141997,169.578642 131.768667,169.641642 131.61,169.767642 C131.451333,169.893643 131.372,170.147974 131.372,170.530642 L131.372,175.234642 L129.328,175.234642 L129.328,168.458642 L131.344,168.458642 L131.344,169.284642 C131.502667,168.640639 132.225994,168.318642 133.514,168.318642 C134.410004,168.318642 135.025998,168.479641 135.362,168.801642 C135.698002,169.123644 135.866,169.611306 135.866,170.264642 L135.866,175.234642 Z M144.378,168.458642 L144.378,175.598642 C144.378,176.587981 144.03967,177.287974 143.363,177.698642 C142.68633,178.109311 141.69934,178.314642 140.402,178.314642 C139.337995,178.314642 138.521336,178.281976 137.952,178.216642 L137.952,176.844642 C138.866671,176.965976 139.68333,177.026642 140.402,177.026642 C141.083337,177.026642 141.575665,176.916977 141.879,176.697642 C142.182335,176.478308 142.334,176.102645 142.334,175.570642 L142.334,174.478642 C142.100665,174.823977 141.848668,175.059642 141.578,175.185642 C141.307332,175.311643 140.836003,175.374642 140.164,175.374642 C139.193328,175.374642 138.500335,175.229977 138.085,174.940642 C137.669665,174.651308 137.462,174.114646 137.462,173.330642 L137.462,170.684642 C137.462,169.769971 137.653331,169.146977 138.036,168.815642 C138.418669,168.484307 139.160661,168.318642 140.262,168.318642 C140.747336,168.318642 141.120665,168.348975 141.382,168.409642 C141.643335,168.470309 141.839333,168.558975 141.97,168.675642 C142.100667,168.79231 142.245333,168.976641 142.404,169.228642 L142.404,168.458642 L144.378,168.458642 Z M142.334,173.204642 L142.334,170.474642 C142.334,170.11064 142.240668,169.87031 142.054,169.753642 C141.867332,169.636975 141.44267,169.578642 140.78,169.578642 C140.229331,169.578642 139.879334,169.646308 139.73,169.781642 C139.580666,169.916976 139.506,170.171307 139.506,170.544642 L139.506,173.134642 C139.506,173.535978 139.580666,173.797308 139.73,173.918642 C139.879334,174.039976 140.266664,174.100642 140.892,174.100642 C141.489336,174.100642 141.878999,174.03531 142.061,173.904642 C142.243001,173.773975 142.334,173.540644 142.334,173.204642 Z"
                      id="Marketing" fill="#4285F4"
                      transform="translate(111.429000, 171.874642) rotate(-72.000000) translate(-111.429000, -171.874642) "></path>
                <path d="M112.314269,266.783062 L105.244269,266.783062 L105.244269,257.697062 L112.174269,257.697062 L112.174269,259.251062 L107.428269,259.251062 L107.428269,261.337062 L111.712269,261.337062 L111.712269,262.891062 L107.428269,262.891062 L107.428269,265.229062 L112.314269,265.229062 L112.314269,266.783062 Z M117.676269,263.563062 L113.364269,263.563062 L113.364269,261.995062 L117.676269,261.995062 L117.676269,263.563062 Z M125.866269,266.783062 L119.216269,266.783062 L119.216269,257.697062 L121.400269,257.697062 L121.400269,265.229062 L125.866269,265.229062 L125.866269,266.783062 Z M133.510269,263.941062 L129.114269,263.941062 L129.114269,264.557062 C129.114269,264.939731 129.249601,265.217394 129.520269,265.390062 C129.790937,265.56273 130.299599,265.649062 131.046269,265.649062 C131.718273,265.649062 132.474265,265.551063 133.314269,265.355062 L133.314269,266.657062 C132.455598,266.834396 131.568941,266.923062 130.654269,266.923062 C128.255591,266.923062 127.056269,266.190403 127.056269,264.725062 L127.056269,262.289062 C127.056269,261.421058 127.336266,260.800397 127.896269,260.427062 C128.456272,260.053727 129.291597,259.867062 130.402269,259.867062 C131.447608,259.867062 132.226933,260.044394 132.740269,260.399062 C133.253605,260.75373 133.510269,261.383724 133.510269,262.289062 L133.510269,263.941062 Z M131.564269,262.779062 L131.564269,261.799062 C131.564269,261.584394 131.477937,261.418729 131.305269,261.302062 C131.132602,261.185395 130.822272,261.127062 130.374269,261.127062 C129.8796,261.127062 129.545937,261.185395 129.373269,261.302062 C129.200602,261.418729 129.114269,261.584394 129.114269,261.799062 L129.114269,262.779062 L131.564269,262.779062 Z M141.182269,266.783062 L139.180269,266.783062 L139.180269,266.167062 C139.030935,266.43773 138.816271,266.631395 138.536269,266.748062 C138.256268,266.864729 137.74294,266.923062 136.996269,266.923062 C136.081598,266.923062 135.474937,266.783063 135.176269,266.503062 C134.877601,266.223061 134.728269,265.639733 134.728269,264.753062 C134.728269,263.950391 134.882268,263.39273 135.190269,263.080062 C135.498271,262.767394 136.048932,262.611062 136.842269,262.611062 L139.138269,262.611062 L139.138269,262.149062 C139.138269,261.738393 139.042604,261.465396 138.851269,261.330062 C138.659935,261.194728 138.256272,261.127062 137.640269,261.127062 C137.0616,261.127062 136.268274,261.183061 135.260269,261.295062 L135.260269,260.007062 C136.03494,259.913728 136.898265,259.867062 137.850269,259.867062 C139.100942,259.867062 139.968934,260.018727 140.454269,260.322062 C140.939605,260.625397 141.182269,261.225058 141.182269,262.121062 L141.182269,266.783062 Z M139.138269,265.047062 L139.138269,263.731062 L137.738269,263.731062 C137.290267,263.731062 137.01027,263.782395 136.898269,263.885062 C136.786269,263.987729 136.730269,264.26306 136.730269,264.711062 C136.730269,265.149731 136.788602,265.415728 136.905269,265.509062 C137.021937,265.602396 137.318267,265.649062 137.794269,265.649062 C138.027604,265.649062 138.200269,265.646729 138.312269,265.642062 C138.42427,265.637395 138.545602,265.625729 138.676269,265.607062 C138.806937,265.588395 138.897936,265.558062 138.949269,265.516062 C139.000603,265.474062 139.044936,265.415729 139.082269,265.341062 C139.119603,265.266395 139.138269,265.168396 139.138269,265.047062 Z M149.232269,263.941062 L144.836269,263.941062 L144.836269,264.557062 C144.836269,264.939731 144.971601,265.217394 145.242269,265.390062 C145.512937,265.56273 146.021599,265.649062 146.768269,265.649062 C147.440273,265.649062 148.196265,265.551063 149.036269,265.355062 L149.036269,266.657062 C148.177598,266.834396 147.290941,266.923062 146.376269,266.923062 C143.977591,266.923062 142.778269,266.190403 142.778269,264.725062 L142.778269,262.289062 C142.778269,261.421058 143.058266,260.800397 143.618269,260.427062 C144.178272,260.053727 145.013597,259.867062 146.124269,259.867062 C147.169608,259.867062 147.948933,260.044394 148.462269,260.399062 C148.975605,260.75373 149.232269,261.383724 149.232269,262.289062 L149.232269,263.941062 Z M147.286269,262.779062 L147.286269,261.799062 C147.286269,261.584394 147.199937,261.418729 147.027269,261.302062 C146.854602,261.185395 146.544272,261.127062 146.096269,261.127062 C145.6016,261.127062 145.267937,261.185395 145.095269,261.302062 C144.922602,261.418729 144.836269,261.584394 144.836269,261.799062 L144.836269,262.779062 L147.286269,262.779062 Z M155.238269,261.561062 L154.538269,261.561062 C153.978266,261.561062 153.555937,261.647394 153.271269,261.820062 C152.986601,261.99273 152.844269,262.28906 152.844269,262.709062 L152.844269,266.783062 L150.800269,266.783062 L150.800269,260.007062 L152.746269,260.007062 L152.746269,261.197062 C152.755603,260.86106 152.949267,260.555397 153.327269,260.280062 C153.705271,260.004727 154.099601,259.867062 154.510269,259.867062 L155.238269,259.867062 L155.238269,261.561062 Z M162.896269,266.783062 L160.852269,266.783062 L160.852269,262.079062 C160.852269,261.705727 160.78927,261.453729 160.663269,261.323062 C160.537269,261.192395 160.236272,261.127062 159.760269,261.127062 C159.172266,261.127062 158.798937,261.190061 158.640269,261.316062 C158.481602,261.442063 158.402269,261.696393 158.402269,262.079062 L158.402269,266.783062 L156.358269,266.783062 L156.358269,260.007062 L158.374269,260.007062 L158.374269,260.833062 C158.532937,260.189059 159.256263,259.867062 160.544269,259.867062 C161.440274,259.867062 162.056268,260.02806 162.392269,260.350062 C162.728271,260.672064 162.896269,261.159725 162.896269,261.813062 L162.896269,266.783062 Z M166.788269,259.209062 L164.744269,259.209062 L164.744269,257.557062 L166.788269,257.557062 L166.788269,259.209062 Z M166.788269,266.783062 L164.744269,266.783062 L164.744269,260.007062 L166.788269,260.007062 L166.788269,266.783062 Z M175.174269,266.783062 L173.130269,266.783062 L173.130269,262.079062 C173.130269,261.705727 173.06727,261.453729 172.941269,261.323062 C172.815269,261.192395 172.514272,261.127062 172.038269,261.127062 C171.450266,261.127062 171.076937,261.190061 170.918269,261.316062 C170.759602,261.442063 170.680269,261.696393 170.680269,262.079062 L170.680269,266.783062 L168.636269,266.783062 L168.636269,260.007062 L170.652269,260.007062 L170.652269,260.833062 C170.810937,260.189059 171.534263,259.867062 172.822269,259.867062 C173.718274,259.867062 174.334268,260.02806 174.670269,260.350062 C175.006271,260.672064 175.174269,261.159725 175.174269,261.813062 L175.174269,266.783062 Z M183.686269,260.007062 L183.686269,267.147062 C183.686269,268.1364 183.347939,268.836393 182.671269,269.247062 C181.994599,269.657731 181.007609,269.863062 179.710269,269.863062 C178.646264,269.863062 177.829605,269.830396 177.260269,269.765062 L177.260269,268.393062 C178.174941,268.514396 178.991599,268.575062 179.710269,268.575062 C180.391606,268.575062 180.883934,268.465396 181.187269,268.246062 C181.490604,268.026728 181.642269,267.651065 181.642269,267.119062 L181.642269,266.027062 C181.408935,266.372397 181.156937,266.608061 180.886269,266.734062 C180.615601,266.860063 180.144273,266.923062 179.472269,266.923062 C178.501598,266.923062 177.808605,266.778397 177.393269,266.489062 C176.977934,266.199727 176.770269,265.663066 176.770269,264.879062 L176.770269,262.233062 C176.770269,261.318391 176.961601,260.695397 177.344269,260.364062 C177.726938,260.032727 178.46893,259.867062 179.570269,259.867062 C180.055605,259.867062 180.428935,259.897395 180.690269,259.958062 C180.951604,260.018729 181.147602,260.107395 181.278269,260.224062 C181.408937,260.340729 181.553602,260.525061 181.712269,260.777062 L181.712269,260.007062 L183.686269,260.007062 Z M181.642269,264.753062 L181.642269,262.023062 C181.642269,261.65906 181.548937,261.418729 181.362269,261.302062 C181.175602,261.185395 180.750939,261.127062 180.088269,261.127062 C179.5376,261.127062 179.187603,261.194728 179.038269,261.330062 C178.888935,261.465396 178.814269,261.719727 178.814269,262.093062 L178.814269,264.683062 C178.814269,265.084397 178.888935,265.345728 179.038269,265.467062 C179.187603,265.588396 179.574933,265.649062 180.200269,265.649062 C180.797606,265.649062 181.187268,265.583729 181.369269,265.453062 C181.55127,265.322395 181.642269,265.089064 181.642269,264.753062 Z"
                      id="E-Leaerning" fill="#4285F4"
                      transform="translate(144.465269, 263.710062) rotate(35.000000) translate(-144.465269, -263.710062) "></path>
                <path d="M214.864877,266.783062 L212.652877,266.783062 L211.840877,264.389062 L208.522877,264.389062 L207.724877,266.783062 L205.568877,266.783062 L208.928877,257.697062 L211.588877,257.697062 L214.864877,266.783062 Z M211.364877,262.933062 L210.216877,259.517062 L210.160877,259.517062 L209.012877,262.933062 L211.364877,262.933062 Z M222.326877,266.783062 L220.282877,266.783062 L220.282877,262.079062 C220.282877,261.705727 220.219878,261.453729 220.093877,261.323062 C219.967877,261.192395 219.66688,261.127062 219.190877,261.127062 C218.602875,261.127062 218.229545,261.190061 218.070877,261.316062 C217.91221,261.442063 217.832877,261.696393 217.832877,262.079062 L217.832877,266.783062 L215.788877,266.783062 L215.788877,260.007062 L217.804877,260.007062 L217.804877,260.833062 C217.963545,260.189059 218.686871,259.867062 219.974877,259.867062 C220.870882,259.867062 221.486876,260.02806 221.822877,260.350062 C222.158879,260.672064 222.326877,261.159725 222.326877,261.813062 L222.326877,266.783062 Z M226.218877,259.209062 L224.174877,259.209062 L224.174877,257.557062 L226.218877,257.557062 L226.218877,259.209062 Z M226.218877,266.783062 L224.174877,266.783062 L224.174877,260.007062 L226.218877,260.007062 L226.218877,266.783062 Z M238.538877,266.783062 L236.494877,266.783062 L236.494877,262.093062 C236.494877,261.682393 236.445878,261.418729 236.347877,261.302062 C236.249877,261.185395 235.981546,261.127062 235.542877,261.127062 C234.982875,261.127062 234.639878,261.185395 234.513877,261.302062 C234.387877,261.418729 234.324877,261.682393 234.324877,262.093062 L234.324877,266.783062 L232.280877,266.783062 L232.280877,262.093062 C232.280877,261.682393 232.231878,261.418729 232.133877,261.302062 C232.035877,261.185395 231.767546,261.127062 231.328877,261.127062 C230.768875,261.127062 230.425878,261.185395 230.299877,261.302062 C230.173877,261.418729 230.110877,261.682393 230.110877,262.093062 L230.110877,266.783062 L228.066877,266.783062 L228.066877,260.007062 L230.110877,260.007062 L230.110877,260.833062 C230.241545,260.189059 230.908871,259.867062 232.112877,259.867062 C232.756881,259.867062 233.239876,259.951061 233.561877,260.119062 C233.883879,260.287063 234.100877,260.53906 234.212877,260.875062 C234.324878,260.529727 234.537209,260.275396 234.849877,260.112062 C235.162546,259.948728 235.654874,259.867062 236.326877,259.867062 C237.213549,259.867062 237.803876,260.023394 238.097877,260.336062 C238.391879,260.64873 238.538877,261.141059 238.538877,261.813062 L238.538877,266.783062 Z M246.434877,266.783062 L244.432877,266.783062 L244.432877,266.167062 C244.283543,266.43773 244.068879,266.631395 243.788877,266.748062 C243.508876,266.864729 242.995548,266.923062 242.248877,266.923062 C241.334206,266.923062 240.727546,266.783063 240.428877,266.503062 C240.130209,266.223061 239.980877,265.639733 239.980877,264.753062 C239.980877,263.950391 240.134876,263.39273 240.442877,263.080062 C240.750879,262.767394 241.30154,262.611062 242.094877,262.611062 L244.390877,262.611062 L244.390877,262.149062 C244.390877,261.738393 244.295212,261.465396 244.103877,261.330062 C243.912543,261.194728 243.508881,261.127062 242.892877,261.127062 C242.314208,261.127062 241.520883,261.183061 240.512877,261.295062 L240.512877,260.007062 C241.287548,259.913728 242.150873,259.867062 243.102877,259.867062 C244.35355,259.867062 245.221542,260.018727 245.706877,260.322062 C246.192213,260.625397 246.434877,261.225058 246.434877,262.121062 L246.434877,266.783062 Z M244.390877,265.047062 L244.390877,263.731062 L242.990877,263.731062 C242.542875,263.731062 242.262878,263.782395 242.150877,263.885062 C242.038877,263.987729 241.982877,264.26306 241.982877,264.711062 C241.982877,265.149731 242.04121,265.415728 242.157877,265.509062 C242.274545,265.602396 242.570875,265.649062 243.046877,265.649062 C243.280212,265.649062 243.452877,265.646729 243.564877,265.642062 C243.676878,265.637395 243.79821,265.625729 243.928877,265.607062 C244.059545,265.588395 244.150544,265.558062 244.201877,265.516062 C244.253211,265.474062 244.297544,265.415729 244.334877,265.341062 C244.372211,265.266395 244.390877,265.168396 244.390877,265.047062 Z M253.826877,266.685062 C253.00554,266.843729 252.240214,266.923062 251.530877,266.923062 C251.185542,266.923062 250.910212,266.918395 250.704877,266.909062 C250.499543,266.899729 250.240546,266.874062 249.927877,266.832062 C249.615209,266.790062 249.363212,266.717729 249.171877,266.615062 C248.980543,266.512395 248.789212,266.379396 248.597877,266.216062 C248.406543,266.052728 248.264211,265.833397 248.170877,265.558062 C248.077544,265.282727 248.030877,264.958397 248.030877,264.585062 L248.030877,262.331062 C248.030877,261.99506 248.070544,261.69873 248.149877,261.442062 C248.229211,261.185394 248.32721,260.97073 248.443877,260.798062 C248.560545,260.625394 248.723876,260.478396 248.933877,260.357062 C249.143879,260.235728 249.337543,260.144729 249.514877,260.084062 C249.692212,260.023395 249.923209,259.974396 250.207877,259.937062 C250.492546,259.899729 250.730543,259.878729 250.921877,259.874062 C251.113212,259.869395 251.362876,259.867062 251.670877,259.867062 C252.184213,259.867062 252.870207,259.951061 253.728877,260.119062 L253.728877,261.463062 C252.758206,261.239061 252.02088,261.127062 251.516877,261.127062 C250.574206,261.127062 250.102877,261.444392 250.102877,262.079062 L250.102877,264.571062 C250.102877,265.289732 250.620872,265.649062 251.656877,265.649062 C252.142213,265.649062 252.865539,265.546396 253.826877,265.341062 L253.826877,266.685062 Z M257.074877,259.209062 L255.030877,259.209062 L255.030877,257.557062 L257.074877,257.557062 L257.074877,259.209062 Z M257.074877,266.783062 L255.030877,266.783062 L255.030877,260.007062 L257.074877,260.007062 L257.074877,266.783062 Z M265.614877,262.457062 L265.614877,264.459062 C265.614877,264.897731 265.544878,265.273394 265.404877,265.586062 C265.264877,265.89873 265.092212,266.141394 264.886877,266.314062 C264.681543,266.48673 264.413212,266.619728 264.081877,266.713062 C263.750542,266.806396 263.447212,266.864729 263.171877,266.888062 C262.896543,266.911395 262.562879,266.923062 262.170877,266.923062 C261.778876,266.923062 261.445212,266.911395 261.169877,266.888062 C260.894543,266.864729 260.591212,266.806396 260.259877,266.713062 C259.928542,266.619728 259.660212,266.48673 259.454877,266.314062 C259.249543,266.141394 259.076878,265.89873 258.936877,265.586062 C258.796877,265.273394 258.726877,264.897731 258.726877,264.459062 L258.726877,262.457062 C258.726877,261.990393 258.79921,261.591397 258.943877,261.260062 C259.088545,260.928727 259.265876,260.674396 259.475877,260.497062 C259.685879,260.319728 259.958876,260.182063 260.294877,260.084062 C260.630879,259.986062 260.931876,259.925395 261.197877,259.902062 C261.463879,259.878729 261.788209,259.867062 262.170877,259.867062 C262.553546,259.867062 262.877876,259.878729 263.143877,259.902062 C263.409879,259.925395 263.710876,259.986062 264.046877,260.084062 C264.382879,260.182063 264.655876,260.319728 264.865877,260.497062 C265.075879,260.674396 265.25321,260.928727 265.397877,261.260062 C265.542545,261.591397 265.614877,261.990393 265.614877,262.457062 Z M263.570877,264.697062 L263.570877,262.135062 C263.570877,261.77106 263.477545,261.512063 263.290877,261.358062 C263.10421,261.204061 262.73088,261.127062 262.170877,261.127062 C261.610875,261.127062 261.237545,261.204061 261.050877,261.358062 C260.86421,261.512063 260.770877,261.77106 260.770877,262.135062 L260.770877,264.697062 C260.770877,265.05173 260.861877,265.299061 261.043877,265.439062 C261.225878,265.579063 261.601541,265.649062 262.170877,265.649062 C262.740214,265.649062 263.115877,265.579063 263.297877,265.439062 C263.479878,265.299061 263.570877,265.05173 263.570877,264.697062 Z M264.662877,257.263062 L262.912877,259.041062 L261.176877,259.041062 L262.436877,257.263062 L264.662877,257.263062 Z M273.748877,266.783062 L271.704877,266.783062 L271.704877,262.079062 C271.704877,261.705727 271.641878,261.453729 271.515877,261.323062 C271.389877,261.192395 271.08888,261.127062 270.612877,261.127062 C270.024875,261.127062 269.651545,261.190061 269.492877,261.316062 C269.33421,261.442063 269.254877,261.696393 269.254877,262.079062 L269.254877,266.783062 L267.210877,266.783062 L267.210877,260.007062 L269.226877,260.007062 L269.226877,260.833062 C269.385545,260.189059 270.108871,259.867062 271.396877,259.867062 C272.292882,259.867062 272.908876,260.02806 273.244877,260.350062 C273.580879,260.672064 273.748877,261.159725 273.748877,261.813062 L273.748877,266.783062 Z M284.892877,263.269062 L284.892877,264.753062 C284.892877,265.537066 284.622214,266.094727 284.080877,266.426062 C283.539541,266.757397 282.704216,266.923062 281.574877,266.923062 C280.78154,266.923062 279.764217,266.853063 278.522877,266.713062 L278.522877,265.089062 C278.616211,265.107729 278.765543,265.138062 278.970877,265.180062 C279.176212,265.222062 279.313877,265.250062 279.383877,265.264062 C279.453878,265.278062 279.570543,265.299062 279.733877,265.327062 C279.897212,265.355062 280.02321,265.373729 280.111877,265.383062 C280.200545,265.392395 280.314877,265.404062 280.454877,265.418062 C280.594878,265.432062 280.732543,265.441395 280.867877,265.446062 C281.003211,265.450729 281.15021,265.453062 281.308877,265.453062 C281.850214,265.453062 282.225876,265.387729 282.435877,265.257062 C282.645879,265.126395 282.750877,264.879064 282.750877,264.515062 L282.750877,263.465062 C282.750877,263.026393 282.279549,262.807062 281.336877,262.807062 L279.684877,262.807062 L279.684877,261.407062 L281.336877,261.407062 C282.064881,261.407062 282.428877,261.141065 282.428877,260.609062 L282.428877,259.727062 C282.428877,259.437727 282.342545,259.239396 282.169877,259.132062 C281.99721,259.024728 281.63088,258.971062 281.070877,258.971062 C280.529541,258.971062 279.708216,259.027061 278.606877,259.139062 L278.606877,257.683062 C279.885551,257.599062 280.781542,257.557062 281.294877,257.557062 C282.396216,257.557062 283.210541,257.683061 283.737877,257.935062 C284.265213,258.187063 284.528877,258.653725 284.528877,259.335062 L284.528877,260.833062 C284.528877,261.122397 284.442545,261.358061 284.269877,261.540062 C284.09721,261.722063 283.894212,261.845728 283.660877,261.911062 C284.482215,262.20973 284.892877,262.662392 284.892877,263.269062 Z M293.600877,266.783062 L291.626877,266.783062 L291.626877,266.013062 C291.46821,266.265063 291.323545,266.449395 291.192877,266.566062 C291.06221,266.682729 290.866212,266.771395 290.604877,266.832062 C290.343543,266.892729 289.970213,266.923062 289.484877,266.923062 C288.327538,266.923062 287.571546,266.778397 287.216877,266.489062 C286.862209,266.199727 286.684877,265.555734 286.684877,264.557062 L286.684877,261.911062 C286.684877,261.145725 286.901875,260.61373 287.335877,260.315062 C287.76988,260.016394 288.453539,259.867062 289.386877,259.867062 C290.058881,259.867062 290.530209,259.930061 290.800877,260.056062 C291.071545,260.182063 291.323543,260.417727 291.556877,260.763062 L291.556877,256.983062 L293.600877,256.983062 L293.600877,266.783062 Z M291.556877,264.753062 L291.556877,262.023062 C291.556877,261.68706 291.465878,261.453729 291.283877,261.323062 C291.101877,261.192395 290.712214,261.127062 290.114877,261.127062 C289.489541,261.127062 289.102212,261.187728 288.952877,261.309062 C288.803543,261.430396 288.728877,261.691727 288.728877,262.093062 L288.728877,264.683062 C288.728877,265.056397 288.803543,265.310728 288.952877,265.446062 C289.102212,265.581396 289.452208,265.649062 290.002877,265.649062 C290.665547,265.649062 291.09021,265.590729 291.276877,265.474062 C291.463545,265.357395 291.556877,265.117064 291.556877,264.753062 Z"
                      id="Animación-3d" fill="#4285F4"
                      transform="translate(249.584877, 261.953062) rotate(-35.000000) translate(-249.584877, -261.953062) "></path>
            </g>
        </g>
    </g>
</svg>